<svg width="40" height="30" viewBox="0 0 40 30" fill="none" xmlns="http://www.w3.org/2000/svg">
<path d="M36.25 0.75C38.3203 0.75 40 2.34496 40 4.3125C40 5.4332 39.4453 6.48711 38.5 7.1625L21.5 19.275C20.6094 19.9059 19.3906 19.9059 18.5 19.275L1.5 7.1625C0.555703 6.48711 0 5.4332 0 4.3125C0 2.34496 1.67891 0.75 3.75 0.75H36.25ZM17 21.175C18.7813 22.4441 21.2187 22.4441 23 21.175L40 9.0625V24.5C40 27.1199 37.7578 29.25 35 29.25H5C2.23828 29.25 0 27.1199 0 24.5V9.0625L17 21.175Z" fill="#B74F6F"/>
</svg>
