<svg width="37" height="33" viewBox="0 0 37 33" fill="none" xmlns="http://www.w3.org/2000/svg">
<path d="M18.5041 8.03922C13.2544 8.03922 9.01991 11.8167 9.01991 16.5C9.01991 21.1833 13.2544 24.9608 18.5041 24.9608C23.7539 24.9608 27.9883 21.1833 27.9883 16.5C27.9883 11.8167 23.7539 8.03922 18.5041 8.03922ZM18.5041 22.0006C15.1116 22.0006 12.3381 19.5338 12.3381 16.5C12.3381 13.4662 15.1033 10.9994 18.5041 10.9994C21.9049 10.9994 24.6701 13.4662 24.6701 16.5C24.6701 19.5338 21.8967 22.0006 18.5041 22.0006V22.0006ZM30.5885 7.69313C30.5885 8.7903 29.5979 9.66657 28.3763 9.66657C27.1464 9.66657 26.1641 8.78294 26.1641 7.69313C26.1641 6.60331 27.1547 5.71968 28.3763 5.71968C29.5979 5.71968 30.5885 6.60331 30.5885 7.69313ZM36.87 9.69603C36.7297 7.05249 36.0528 4.71087 33.8819 2.7816C31.7193 0.852337 29.0944 0.248522 26.1311 0.115977C23.077 -0.0386589 13.923 -0.0386589 10.8689 0.115977C7.91383 0.241158 5.28896 0.844974 3.11807 2.77424C0.947184 4.7035 0.278583 7.04513 0.130006 9.68866C-0.0433352 12.4132 -0.0433352 20.5794 0.130006 23.304C0.270329 25.9475 0.947184 28.2891 3.11807 30.2184C5.28896 32.1477 7.90558 32.7515 10.8689 32.884C13.923 33.0387 23.077 33.0387 26.1311 32.884C29.0944 32.7588 31.7193 32.155 33.8819 30.2184C36.0446 28.2891 36.7214 25.9475 36.87 23.304C37.0433 20.5794 37.0433 12.4206 36.87 9.69603V9.69603ZM32.9244 26.2273C32.2806 27.6706 31.0342 28.7825 29.4081 29.3642C26.9731 30.2258 21.195 30.0269 18.5041 30.0269C15.8132 30.0269 10.0269 30.2184 7.60017 29.3642C5.98232 28.7899 4.73592 27.678 4.08383 26.2273C3.11807 24.0551 3.34094 18.9005 3.34094 16.5C3.34094 14.0995 3.12632 8.93758 4.08383 6.77268C4.72766 5.32941 5.97407 4.21751 7.60017 3.63578C10.0352 2.77424 15.8132 2.97306 18.5041 2.97306C21.195 2.97306 26.9813 2.7816 29.4081 3.63578C31.0259 4.21014 32.2723 5.32205 32.9244 6.77268C33.8902 8.94494 33.6673 14.0995 33.6673 16.5C33.6673 18.9005 33.8902 24.0624 32.9244 26.2273Z" fill="#B74F6F"/>
</svg>
