<svg width="33" height="40" viewBox="0 0 33 40" fill="none" xmlns="http://www.w3.org/2000/svg">
<path d="M7.25369 40H0.535274V13.294H7.25369V40ZM3.89086 9.65111C1.74253 9.65111 0 7.45463 0 4.80279C1.53768e-08 3.52901 0.409929 2.3074 1.13961 1.4067C1.86929 0.506006 2.85894 0 3.89086 0C4.92279 0 5.91244 0.506006 6.64212 1.4067C7.3718 2.3074 7.78173 3.52901 7.78173 4.80279C7.78173 7.45463 6.03847 9.65111 3.89086 9.65111ZM32.3986 40H25.6946V26.9997C25.6946 23.9014 25.644 19.9281 22.2016 19.9281C18.7086 19.9281 18.1733 23.2943 18.1733 26.7765V40H11.4621V13.294H17.9056V16.937H17.9997C18.8966 14.8387 21.0876 12.6244 24.3564 12.6244C31.1559 12.6244 32.4058 18.1513 32.4058 25.33V40H32.3986Z" fill="#B74F6F"/>
</svg>
