<svg width="40" height="40" viewBox="0 0 40 40" fill="none" xmlns="http://www.w3.org/2000/svg">
<rect width="40" height="40" rx="5" fill="#F8F4EC"/>
<path d="M23.3665 17.1818V19.2273H17.3068V17.1818H23.3665ZM18.6939 27V16.4723C18.6939 15.7607 18.8324 15.1705 19.1094 14.7017C19.3906 14.233 19.7741 13.8814 20.2599 13.647C20.7457 13.4126 21.2976 13.2955 21.9155 13.2955C22.3331 13.2955 22.7145 13.3274 23.0597 13.3913C23.4091 13.4553 23.669 13.5128 23.8395 13.5639L23.3537 15.6094C23.2472 15.5753 23.1151 15.5433 22.9574 15.5135C22.804 15.4837 22.6463 15.4688 22.4844 15.4688C22.0838 15.4688 21.8047 15.5625 21.647 15.75C21.4893 15.9332 21.4105 16.1911 21.4105 16.5234V27H18.6939Z" fill="#A37A4C"/>
</svg>
