<svg width="40" height="40" viewBox="0 0 40 40" fill="none" xmlns="http://www.w3.org/2000/svg">
<rect width="40" height="40" rx="5" fill="#F8F4EC"/>
<path d="M13.0866 27V17.1818H15.8097V27H13.0866ZM14.4545 15.9162C14.0497 15.9162 13.7024 15.782 13.4126 15.5135C13.1271 15.2408 12.9844 14.9148 12.9844 14.5355C12.9844 14.1605 13.1271 13.8388 13.4126 13.5703C13.7024 13.2976 14.0497 13.1612 14.4545 13.1612C14.8594 13.1612 15.2045 13.2976 15.4901 13.5703C15.7798 13.8388 15.9247 14.1605 15.9247 14.5355C15.9247 14.9148 15.7798 15.2408 15.4901 15.5135C15.2045 15.782 14.8594 15.9162 14.4545 15.9162ZM20.948 21.3239V27H18.2249V17.1818H20.8201V18.9141H20.9352C21.1525 18.343 21.5168 17.8913 22.0282 17.5589C22.5396 17.2223 23.1596 17.054 23.8883 17.054C24.5701 17.054 25.1646 17.2031 25.6717 17.5014C26.1788 17.7997 26.573 18.2259 26.8542 18.7798C27.1355 19.3295 27.2761 19.9858 27.2761 20.7486V27H24.5531V21.2344C24.5573 20.6335 24.4039 20.1648 24.0928 19.8281C23.7818 19.4872 23.3535 19.3168 22.808 19.3168C22.4416 19.3168 22.1177 19.3956 21.8365 19.5533C21.5595 19.7109 21.3421 19.9411 21.1845 20.2436C21.0311 20.5419 20.9522 20.902 20.948 21.3239Z" fill="#A37A4C"/>
</svg>
