<svg width="15" height="15" viewBox="0 0 15 15" fill="none" xmlns="http://www.w3.org/2000/svg">
<path d="M13.5938 1.875C14.3701 1.875 15 2.50459 15 3.28125C15 3.72363 14.792 4.13965 14.4375 4.40625L8.0625 9.1875C7.72852 9.43652 7.27148 9.43652 6.9375 9.1875L0.5625 4.40625C0.208389 4.13965 0 3.72363 0 3.28125C0 2.50459 0.62959 1.875 1.40625 1.875H13.5938ZM6.375 9.9375C7.04297 10.4385 7.95703 10.4385 8.625 9.9375L15 5.15625V11.25C15 12.2842 14.1592 13.125 13.125 13.125H1.875C0.839356 13.125 0 12.2842 0 11.25V5.15625L6.375 9.9375Z" fill="white"/>
</svg>
