<svg width="15" height="12" viewBox="0 0 15 12" fill="none" xmlns="http://www.w3.org/2000/svg">
<path d="M13.5938 0C14.3701 0 15 0.62959 15 1.40625C15 1.84863 14.792 2.26465 14.4375 2.53125L8.0625 7.3125C7.72852 7.56152 7.27148 7.56152 6.9375 7.3125L0.5625 2.53125C0.208389 2.26465 0 1.84863 0 1.40625C0 0.62959 0.62959 0 1.40625 0H13.5938ZM6.375 8.0625C7.04297 8.56348 7.95703 8.56348 8.625 8.0625L15 3.28125V9.375C15 10.4092 14.1592 11.25 13.125 11.25H1.875C0.839355 11.25 0 10.4092 0 9.375V3.28125L6.375 8.0625Z" fill="#72542B"/>
</svg>
