<svg width="15" height="13" viewBox="0 0 15 13" fill="none" xmlns="http://www.w3.org/2000/svg">
<path d="M13.5938 0.875C14.3701 0.875 15 1.50459 15 2.28125C15 2.72363 14.792 3.13965 14.4375 3.40625L8.0625 8.1875C7.72852 8.43652 7.27148 8.43652 6.9375 8.1875L0.5625 3.40625C0.208389 3.13965 0 2.72363 0 2.28125C0 1.50459 0.62959 0.875 1.40625 0.875H13.5938ZM6.375 8.9375C7.04297 9.43848 7.95703 9.43848 8.625 8.9375L15 4.15625V10.25C15 11.2842 14.1592 12.125 13.125 12.125H1.875C0.839356 12.125 0 11.2842 0 10.25V4.15625L6.375 8.9375Z" fill="black"/>
</svg>
