<svg width="13" height="13" viewBox="0 0 13 13" fill="none" xmlns="http://www.w3.org/2000/svg">
<path d="M6.42249 2.92433C4.69735 2.92433 3.30585 4.29843 3.30585 6.002C3.30585 7.70557 4.69735 9.07968 6.42249 9.07968C8.14762 9.07968 9.53912 7.70557 9.53912 6.002C9.53912 4.29843 8.14762 2.92433 6.42249 2.92433ZM6.42249 8.0029C5.30766 8.0029 4.39627 7.10557 4.39627 6.002C4.39627 4.89843 5.30495 4.00111 6.42249 4.00111C7.54002 4.00111 8.4487 4.89843 8.4487 6.002C8.4487 7.10557 7.53731 8.0029 6.42249 8.0029ZM10.3935 2.79844C10.3935 3.19754 10.0681 3.51629 9.6666 3.51629C9.26245 3.51629 8.93966 3.19486 8.93966 2.79844C8.93966 2.40201 9.26516 2.08058 9.6666 2.08058C10.0681 2.08058 10.3935 2.40201 10.3935 2.79844ZM12.4577 3.52701C12.4116 2.5654 12.1892 1.71361 11.4758 1.01183C10.7652 0.310044 9.90259 0.0904017 8.92881 0.0421875C7.9252 -0.0140625 4.91706 -0.0140625 3.91345 0.0421875C2.94238 0.0877231 2.07981 0.307366 1.36643 1.00915C0.653053 1.71094 0.433343 2.56272 0.384518 3.52433C0.327556 4.5154 0.327556 7.48593 0.384518 8.477C0.43063 9.43861 0.653053 10.2904 1.36643 10.9922C2.07981 11.694 2.93967 11.9136 3.91345 11.9618C4.91706 12.0181 7.9252 12.0181 8.92881 11.9618C9.90259 11.9163 10.7652 11.6966 11.4758 10.9922C12.1865 10.2904 12.4089 9.43861 12.4577 8.477C12.5147 7.48593 12.5147 4.51808 12.4577 3.52701ZM11.1612 9.54039C10.9496 10.0654 10.54 10.4699 10.0057 10.6815C9.20548 10.9949 7.30675 10.9225 6.42249 10.9225C5.53822 10.9225 3.63677 10.9922 2.83931 10.6815C2.30766 10.4725 1.89808 10.0681 1.68379 9.54039C1.36643 8.75022 1.43967 6.87522 1.43967 6.002C1.43967 5.12879 1.36915 3.25111 1.68379 2.46361C1.89537 1.93861 2.30495 1.53415 2.83931 1.32254C3.63949 1.00915 5.53822 1.08147 6.42249 1.08147C7.30675 1.08147 9.2082 1.01183 10.0057 1.32254C10.5373 1.53147 10.9469 1.93594 11.1612 2.46361C11.4785 3.25379 11.4053 5.12879 11.4053 6.002C11.4053 6.87522 11.4785 8.75289 11.1612 9.54039Z" fill="#C49A6A"/>
</svg>
