<svg width="12" height="14" viewBox="0 0 12 14" fill="none" xmlns="http://www.w3.org/2000/svg">
<path d="M2.53873 13.9997H0.187342V4.65281H2.53873V13.9997ZM1.36177 3.37781C0.609873 3.37781 0 2.60906 0 1.68094C5.38177e-09 1.23513 0.143472 0.807572 0.398854 0.492335C0.654236 0.177098 1.00061 0 1.36177 0C1.72294 0 2.06931 0.177098 2.32469 0.492335C2.58007 0.807572 2.72354 1.23513 2.72354 1.68094C2.72354 2.60906 2.11342 3.37781 1.36177 3.37781ZM11.3392 13.9997H8.99291V9.44969C8.99291 8.36531 8.97519 6.97469 7.77038 6.97469C6.54785 6.97469 6.36051 8.15281 6.36051 9.37156V13.9997H4.01165V4.65281H6.26684V5.92781H6.29975C6.61367 5.19344 7.38051 4.41844 8.52456 4.41844C10.9043 4.41844 11.3418 6.35281 11.3418 8.86531V13.9997H11.3392Z" fill="#C49A6A"/>
</svg>
