<svg xmlns="http://www.w3.org/2000/svg" viewBox="0 0 1024 768"><defs><style>.cls-2{fill:#8b632f;}.cls-3{fill:#384819;}</style></defs><title>Scaleable Vector Graphics</title><g id="Layer_2" data-name="Layer 2"></g><g id="Layer_1" data-name="Layer 1"><path d="M211.6,319.82H222c13.38,0,22.37,7.77,22.37,23.61v.2c0,15.33-8.58,23.4-21.45,24.12h-1.23v23.6H211.6Zm11.45,38.63c6.74-.2,11.24-5,11.24-14.51v-.21c0-9.91-4.29-14.61-11-14.61h-1.53v29.33Z" transform="translate(0 0)"/><path d="M257,319.62h10.73l14.2,71.73H271.8l-2.87-15.94H255.45l-2.87,15.94h-9.81Zm10.42,46.7-5.21-28.72L257,366.32Z" transform="translate(0 0)"/><path d="M287.23,319.82h10.32l10.12,30.35,10.11-30.35H328.1v71.53h-9.71V342.61l-10.62,31.47h-.31l-10.62-31.47v48.74h-9.61Z" transform="translate(0 0)"/><path d="M336.69,319.82h26.47v9.51H346.81v21.25h14.61v9.5H346.81v21.77h16.65v9.5H336.69Z" transform="translate(0 0)"/><path d="M370.21,319.82h10.12v62h14.61v9.5H370.21Z" transform="translate(0 0)"/><path d="M410.68,319.62h10.73l14.2,71.73H425.5l-2.86-15.94H409.15l-2.86,15.94h-9.81Zm10.42,46.7-5.21-28.72-5.21,28.72Z" transform="translate(0 0)"/><path d="M464.23,329.33h-9.71v-9.51h29.33v9.51h-9.6v62h-10Z" transform="translate(0 0)"/><path d="M485.49,319.82h10.42l6.54,49.46,7.87-49.46h9.3l7.77,49.46L534,319.82h10.11L532.9,391.66H522.48l-7.66-48.44-7.67,48.44H496.83Z" transform="translate(0 0)"/><path d="M550.18,319.82h10v71.53h-10Z" transform="translate(0 0)"/><path d="M567.75,356.71v-2.25c0-23.29,9.92-35.15,23.2-35.15a20.82,20.82,0,0,1,9.3,2.05V332c-3.07-1.84-5.83-3.06-9-3.06-7.67,0-13.29,8.17-13.29,25.14v3.06c0,19.31,6.13,25.55,12.57,25.55a6.85,6.85,0,0,0,2.35-.41V361h-7.56v-9h16.76v37c-4.29,1.94-7.56,3-12,3C577.87,392,567.75,381.24,567.75,356.71Z" transform="translate(0 0)"/><path d="M608.73,356.71v-2.25c0-23.29,9.92-35.15,23.2-35.15a20.82,20.82,0,0,1,9.3,2.05V332c-3.07-1.84-5.83-3.06-9-3.06-7.67,0-13.29,8.17-13.29,25.14v3.06c0,19.31,6.13,25.55,12.57,25.55a6.85,6.85,0,0,0,2.35-.41V361h-7.56v-9h16.76v37c-4.29,1.94-7.56,3-12,3C618.85,392,608.73,381.24,608.73,356.71Z" transform="translate(0 0)"/><path d="M211.6,460.66v-3.39c0-37.27,13.86-53,30.65-53a23.66,23.66,0,0,1,11.86,2.62v15.71c-3.85-2.31-6.93-3.55-10.47-3.55-9.4,0-16.64,10-16.64,38.05v3.69c0,29.11,7.24,38.05,16.79,38.05a20.82,20.82,0,0,0,10.63-3.39v14.94c-3.85,2.31-7.85,3.23-13.09,3.23C224.54,513.64,211.6,497.63,211.6,460.66Z" transform="translate(0 0)"/><path d="M259.2,461.28v-4.62c0-36.35,11.4-53,27.73-53s27.72,16.64,27.72,53v4.62c0,36.35-11.4,53-27.72,53S259.2,497.63,259.2,461.28Zm40.05,0v-4.62c0-27.88-5.08-39.13-12.32-39.13s-12.32,11.25-12.32,39.13v4.62c0,27.87,5.08,39.12,12.32,39.12S299.25,489.15,299.25,461.28Z" transform="translate(0 0)"/><path d="M339.3,404.75h16.17l21.41,108.12H361.64l-4.32-24H337l-4.31,24H317.89ZM355,475.14l-7.85-43.28-7.86,43.28Z" transform="translate(0 0)"/><path d="M380.28,460.66v-3.39c0-37.27,13.86-53,30.65-53a23.66,23.66,0,0,1,11.86,2.62v15.71c-3.85-2.31-6.93-3.55-10.47-3.55-9.4,0-16.64,10-16.64,38.05v3.69c0,29.11,7.24,38.05,16.79,38.05a20.82,20.82,0,0,0,10.63-3.39v14.94c-3.85,2.31-7.86,3.23-13.09,3.23C393.22,513.64,380.28,497.63,380.28,460.66Z" transform="translate(0 0)"/><path d="M433.89,405.06h15.25v46.36h21.4V405.06h15.1V512.87h-15.1v-47h-21.4v47H433.89Z" transform="translate(0 0)"/><path d="M499.2,405.06h15.1V512.87H499.2Z" transform="translate(0 0)"/><path d="M527.85,405.06h14.48l23.41,65.3v-65.3h14.79V512.87H566.82L542.64,445.1v67.77H527.85Z" transform="translate(0 0)"/><path d="M591.31,460.66v-3.39c0-35.12,15-53,35-53a31.45,31.45,0,0,1,14,3.08v16c-4.63-2.78-8.78-4.62-13.56-4.62-11.55,0-20,12.32-20,37.89v4.62c0,29.11,9.24,38.5,18.94,38.5a10.2,10.2,0,0,0,3.55-.61v-32h-11.4V453.57h25.26v55.76c-6.47,2.93-11.4,4.47-18,4.47C606.56,513.8,591.31,497.63,591.31,460.66Z" transform="translate(0 0)"/><path d="M213.36,522.12v15.61H211.6V522.12Z" transform="translate(0 0)"/><path d="M224.63,522.12h1.76v14h8.79v1.63H224.63Z" transform="translate(0 0)"/><path d="M244.79,538a7.84,7.84,0,0,1-7.94-8,8,8,0,1,1,7.94,8Zm0-14.52a6.14,6.14,0,0,0-6.11,6.42,6.22,6.22,0,0,0,6.16,6.47A6.13,6.13,0,0,0,251,530,6.22,6.22,0,0,0,244.79,523.48Z" transform="translate(0 0)"/><path d="M267.34,522.12h1.9l-6.71,15.72H261l-6.72-15.72h2l5.55,13.45Z" transform="translate(0 0)"/><path d="M283.61,523.73h-9.53v5.33h8.52v1.6h-8.52v5.47h9.64v1.6h-11.4V522.12h11.29Z" transform="translate(0 0)"/><path d="M303.41,522.08h1.45l4.29,13,4.46-13h1.85l-5.58,15.72h-1.49l-4.29-12.66-4.3,12.66h-1.47l-5.58-15.72h1.92l4.46,13Z" transform="translate(0 0)"/><path d="M320.41,530.71v7h-1.76V522.12h1.76v6.94h9v-6.94h1.76v15.61h-1.76v-7Z" transform="translate(0 0)"/><path d="M350.14,537.73h-1.89l-1.83-4.12h-8.5l-1.85,4.12h-1.81L341.38,522H343Zm-8-13.67-3.57,8h7.12Z" transform="translate(0 0)"/><path d="M357.13,537.73h-1.79v-14H350.1v-1.63h12.27v1.63h-5.24Z" transform="translate(0 0)"/><path d="M374.28,522.12v15.61h-1.76V522.12Z" transform="translate(0 0)"/><path d="M391,537.73h-5.42V522.12H391c4.9,0,8.29,3.37,8.29,7.78S395.87,537.73,391,537.73Zm0-14h-3.66V536.1H391c3.94,0,6.46-2.67,6.46-6.15A6.08,6.08,0,0,0,391,523.75Z" transform="translate(0 0)"/><path d="M410.24,538a8.08,8.08,0,1,1,8-8.1A7.84,7.84,0,0,1,410.24,538Zm0-14.52a6.14,6.14,0,0,0-6.11,6.42,6.21,6.21,0,0,0,6.15,6.47,6.13,6.13,0,0,0,6.11-6.42A6.21,6.21,0,0,0,410.24,523.48Z" transform="translate(0 0)"/><path d="M420.57,537.73v-2.34h2.05v2.34Z" transform="translate(0 0)"/><path d="M645.31,537.73v-2.34h2.05v2.34Z" transform="translate(0 0)"/><path d="M439.88,537.73H438.1v-6.18l-6.49-9.43h2.14l5.26,7.81,5.31-7.81h2.05l-6.49,9.41Z" transform="translate(0 0)"/><path d="M455.1,538a7.83,7.83,0,0,1-7.94-8,8,8,0,1,1,7.94,8Zm0-14.52A6.15,6.15,0,0,0,449,529.9a6.22,6.22,0,0,0,6.16,6.47,6.13,6.13,0,0,0,6.11-6.42A6.21,6.21,0,0,0,455.1,523.48Z" transform="translate(0 0)"/><path d="M479.56,531.06c0,4.55-2.6,6.92-6.51,6.92s-6.49-2.37-6.49-6.78v-9.08h1.76v9c0,3.36,1.79,5.26,4.78,5.26s4.7-1.74,4.7-5.15v-9.08h1.76Z" transform="translate(0 0)"/><path d="M496,529.08c3.48.76,5.08,2,5.08,4.44,0,2.7-2.23,4.44-5.33,4.44a9.17,9.17,0,0,1-6.38-2.5l1.1-1.3a7.37,7.37,0,0,0,5.35,2.21c2.09,0,3.48-1.09,3.48-2.67s-.78-2.3-4.06-3c-3.59-.78-5.24-1.94-5.24-4.53s2.16-4.28,5.13-4.28a8.13,8.13,0,0,1,5.48,1.91l-1,1.37a6.83,6.83,0,0,0-4.51-1.7c-2,0-3.32,1.12-3.32,2.54S492.59,528.34,496,529.08Z" transform="translate(0 0)"/><path d="M506.47,530.71v7H504.7V522.12h1.77v6.94h9v-6.94h1.76v15.61h-1.76v-7Z" transform="translate(0 0)"/><path d="M528.91,538a8.08,8.08,0,1,1,8-8.1A7.84,7.84,0,0,1,528.91,538Zm0-14.52a6.15,6.15,0,0,0-6.12,6.42,6.22,6.22,0,0,0,6.16,6.47,6.13,6.13,0,0,0,6.11-6.42A6.21,6.21,0,0,0,528.91,523.48Z" transform="translate(0 0)"/><path d="M553.38,531.06c0,4.55-2.61,6.92-6.52,6.92s-6.49-2.37-6.49-6.78v-9.08h1.76v9c0,3.36,1.79,5.26,4.78,5.26s4.7-1.74,4.7-5.15v-9.08h1.77Z" transform="translate(0 0)"/><path d="M557.55,522.12h1.76v14h8.79v1.63H557.55Z" transform="translate(0 0)"/><path d="M576.78,537.73h-5.42V522.12h5.42c4.9,0,8.29,3.37,8.29,7.78S581.68,537.73,576.78,537.73Zm0-14h-3.66V536.1h3.66c3.94,0,6.46-2.67,6.46-6.15A6.08,6.08,0,0,0,576.78,523.75Z" transform="translate(0 0)"/><path d="M601.4,537.73h-1.78v-14h-5.24v-1.63h12.26v1.63H601.4Z" transform="translate(0 0)"/><path d="M616.12,538a7.84,7.84,0,0,1-7.94-8,8,8,0,1,1,7.94,8Zm0-14.52A6.14,6.14,0,0,0,610,529.9a6.22,6.22,0,0,0,6.16,6.47,6.13,6.13,0,0,0,6.11-6.42A6.22,6.22,0,0,0,616.12,523.48Z" transform="translate(0 0)"/><path d="M635.08,538a7.84,7.84,0,0,1-7.94-8,8,8,0,1,1,7.94,8Zm0-14.52A6.14,6.14,0,0,0,629,529.9a6.22,6.22,0,0,0,6.16,6.47,6.13,6.13,0,0,0,6.11-6.42A6.22,6.22,0,0,0,635.08,523.48Z" transform="translate(0 0)"/><path class="cls-2" d="M781.62,378.85c-2.92,1.9-4.2,11.4-16.18,10.22,3.58-7.45,3.89-12.42,4.38-12.71,3.82-2.28,10.17-8.93,11.74-12.82-.54.46-8.95,10.73-11.76,11.25-.39-2.6.08-5.63.37-8.23a21.18,21.18,0,0,1,2.16-7.89s0-.07-.06,0c-5.83,8.77-.19,13-8.55,30.42-1.75,3.62-3.71,6.84-7.34,8.77-10.74,5.69-10.88,9.65-14.37,12.23-4.76,3.52-6.17,5.3-6.78,8.51,1-7.48-.18-23.8-.18-23.85,3-6.15,5.79-11.51,8-18,1-2.93,1.9-5.9,2.65-8.9a22,22,0,0,1,5.36-2.89c2.08-.74,10.32-1.81,14.39-5.06,2.32-.89,4.87-1.28,6.19-3.5a35.74,35.74,0,0,1,7.36-8.88c-3,1.51-5.19,4.52-7.09,7.17-.94,1.32-1.47,2.85-5.27,4.07,2.64-2.18,3.21-7.6,4.63-11.57,1.17-3.25,4.61-5.18,4.56-5.16-6.32,2.2-5.86,9.61-8.61,14.64-2.2,4.05-6.9,4.83-11,5.67-3.41.69-7,1.41-10,3.24a52.24,52.24,0,0,0,2.18-17.12c2.83-4.71,5.09-14.68,5.32-14.88,2.18-2,4.4-7,5-8.67a84.18,84.18,0,0,0,2.85-11.14c-.84,2.92-2,6.75-3.11,10.07-.58,1.7-3.57,7.94-4.86,8.58,0,0,2.62-18.85,2.32-24.46,0-.16-2.55,31.15-8,37.73-1.09-8.4-1.82-8.06-2.62-12a64.11,64.11,0,0,1-1-11.24,43.61,43.61,0,0,1,1.5-11.27,32.74,32.74,0,0,0-2.13,8.57,54.79,54.79,0,0,0,.64,13.92c-1.33-1.46-3.6-2.9-4.79-4.6-2.46-3.52-.19-13-.23-12.92-1,2.82-2.85,7.49-.91,12.56.85,2.25,4.07,4.13,5.81,7,2.06,3.39,4.07,19.52-3,39.27-1.22,3.37-2.5,6.71-4,10-.79,1.72-1.56,2.69-2.5,4.37-.27-11.82-3.47-20.62-4.16-23.68-2-8.7-1.53-27-1-29.53,1.41-7-1-16.09-1.27-17.12,2.85-7.31,9.29-12.47,11.84-14.2a12.25,12.25,0,0,0,2.86-2.61c6.51-2.12,6.56-2.61,7.29-3.56,2.59-3.42,6.77-5.23,10.78-6.49.16-.05-4.44.17-9.59,4.33-1.09.87-1.81,2.37-3.11,3s-3.28,1.06-4.6,1.61a18.53,18.53,0,0,0,1-2.2,31.84,31.84,0,0,0,2.1-9.73,63.55,63.55,0,0,1-2.7,9.54,12.4,12.4,0,0,1-3.39,4.66c-1,.93-6.68,4.27-10,8.84a22.76,22.76,0,0,0-3,4.78c-3.25-17.08-2.57-18.74-1.86-20.93a69.22,69.22,0,0,1,5.09-12.34,59.92,59.92,0,0,0,3.54-7.36c2.56-1.29,5.76-2.15,7.41-4.54,2-2.84,7-13.49,6.92-13.44-2.24,3.88-4.22,7.89-6.4,11.8-1.77,3.17-4.83,3.79-7.67,5.31.29-1,.51-1.78,1-3.39,3.62-11.27,2.75-23,2.66-24.53,0-.37-.27,6.45-.58,11.12-.41,6.42-2.23,11.37-3.41,15.24-2.32,7.69-10.18,17.81-10.09,24.48-.69-2.81-2.2-8-2.9-10.83A41.14,41.14,0,0,1,720,276.66c.07-9,2-18.43,1.25-22.07-1-8.18.31-10.45.25-10.52s-1.42,2.07-1.27,6.43a40.82,40.82,0,0,1,.07,8.92c-.25,2.18-.9,8.91-1,10.42-.28-1.45-4.87-7.6-4.17-14.1.29-2.72,2.38-5.93,1.74-8.74-.28-1.24-1.18-1.95-1.47-3.23-.35-1.58-.78-3.7-1.31-4.38a29.24,29.24,0,0,1,.89,4.66c.14,1.31.78,1.91,1.21,3.13s-.42,3.37-.74,4.54a26.91,26.91,0,0,0-1.14,4.58,17.53,17.53,0,0,0,1.58,8.44c1.15,2.71,2.74,5.08,3.15,8.18-1.4,10.21,4.43,25,5.23,32,1.56,20.17,5.27,18.77,3.69,28.91a24.14,24.14,0,0,0-2.75-4.83c-1.83-2.48-9.41-9-12.32-9.84-.1-.19-.68-.59-1.07-3.11-.21-1.35-.4-2.47-1.52-3.35-1.28-1-2.91-1.5-4.11-2.61-1.56-1.46-1.65-4-2.7-5.8s-3.4-3.12-5.44-4.21a23,23,0,0,0-.94-4.36A7.21,7.21,0,0,0,695,293.3c-1.71-1.46-1.65-3.35-2-4-.68-1.4-1.68-2.52-1.79-4.15a4.7,4.7,0,0,0,.94,3c.9,1.33.78,2.87,1.68,4.21s2.22,2.13,2.77,3.54c.45,1.19.35,1.25.64,3.79-1.2-.15-6.18-3.11-9.17-6.81,0,0,.5,1.72,6.22,5.9,2.46,1.79,5.49,2.59,7.82,5.25,1.28,1.46,1.45,3.58,2.31,5.25s4.25,3.5,4.9,3.95c1.07.75,1.25,1.89,1.43,3.08.11.78.18,1.55.3,2.31-6.05.07-10-8-11.61-9.75a12.16,12.16,0,0,0-6.27-3.34c-5.75-1.45-12.08-2-17.84-.38-.06,0,7-1.7,17.64,1a11.25,11.25,0,0,1,6.26,4c1.46,1.8,2.52,3.88,4,5.69a9.89,9.89,0,0,0,5.61,3.58c.84.22,7.26,1,14.12,9.72a24.31,24.31,0,0,1,4.19,7.77c.07.23-1.12,25.8,2.7,34.79a73.24,73.24,0,0,1-5-5.76,85.6,85.6,0,0,1-7.58-12.55c-1.46-3-2.74-6.16-4.77-8.84a20.18,20.18,0,0,0-8.45-6,20.1,20.1,0,0,1,8.16,7.13c1.81,2.82,3,6,4.41,9.06.3.65.62,1.28.95,1.91a13.47,13.47,0,0,1-6.33-2.41c-2.77-2-4.67-4.6-7.93-6-2.68-1.12-5.49-1.44-7.49-3.75a22,22,0,0,1-3.26-5.84,20.69,20.69,0,0,0-3.58-6c2.59,3.91,3.48,8.36,6,11.94,1.44,2,3.49,2.87,5.77,3.63,1.65.55,4.62,1.62,8.79,5.88,1.05,1.07,1.78,2.23,9,4.3,1.56,2.81,5.23,8.21,5.26,8.25s-4.5-2.51-8.06-.41a9.4,9.4,0,0,1-2.92.78c-2.34.53-4.41-1.21-10.3,5.42-2.86,3.21-8.27,4.3-12.33,4.56a42.17,42.17,0,0,1-12.26-.72c-3.3-.84-.83.4.08.42,1.19,0,6.2,1.14,11.06.91,7.32-.33,10.07-2.3,11.38-2.93,2.77-1.33,4.5-4,7.05-5.6a23.17,23.17,0,0,0-2.15,6.26c-.16,1.55,0,3.1,0,4.65-.08,3-2.55,4.45-4.51,6.28a15,15,0,0,0,4.3-3.43c1.2-1.87.84-4.23.88-6.31s1.28-6.36,3.43-8.23c1.26-.23,3.13.5,7.85-1.28,2.57-1,4.26-.05,8,1.77.7.95,4.36,4.68,5.18,5.83.45,2.32.86,4.66,1.14,7,.48,4.19,1.55,24.22.8,35-1.87-3-9.28-7.56-12.15-8.42,0-.08-3.25-5.19-5.85-6.63a27,27,0,0,0-3.73-1.31,8.16,8.16,0,0,1-3.42-3c-1-1.28-3.39-.94-4.44-.66-3.15.83-6.17,3.06-9.39,3.69-.09,0,1.35.47,7.72-2.71,1.3-.65,4.88-1.42,6,.66,1.3,2.31,3.6,2.77,6,3.61,2.91,1,4,3.85,5.76,6a41.24,41.24,0,0,1-7.81-.56c-2.35-.4-4.59-1.14-7-1-2.83.22-5.18,1.95-7.7,3a7.35,7.35,0,0,1-3.73.58c2.87,1.18,6.08-1.18,8.59-2.27,4.45-1.93,9.18,1.17,13.75,1.19a16.49,16.49,0,0,1,5.27.72c1.69.57,10.1,5.49,11.69,11.09a123.29,123.29,0,0,0-.24,17.33c-1.69-3-7.85-12.55-18.76-16.39a34.23,34.23,0,0,0-8.59-1.85,17.72,17.72,0,0,1-9-2.89,25.12,25.12,0,0,0-7.35-3.46,30.22,30.22,0,0,0-8.21-.7s5.29.18,8.44,1.41a34.5,34.5,0,0,1,7.66,4.07,13.39,13.39,0,0,0,7,2.54,27.23,27.23,0,0,1,12.36,3.52,9.66,9.66,0,0,0-4.06.93c-1.12.66-1.56,2-3,2s-7.59-3.09-12.84-3.3a87.69,87.69,0,0,0-9.27.49c3.08.12,6.17,0,9.25.1,3.27.15,6,1.33,9,2.47,1.57.59,4.58,1.92,5.93.58,1.18-1.18,2.35-3.1,7.45-1.95a31.34,31.34,0,0,1,6.56,5.39c3.44,3.68,5.54,9.55,7.3,11.59.88,1,1.29,14.87-.82,44.7-.64,9,0,32.09-1,41.38-.21,2.08,10.69,2,10.15,0-1.94-7.25-3.78-22.5-3.43-32,1.66-45.35-1-59.58-.87-63.41.82-17.74,4.07-18,7.87-21.92,3-3.16,5.39-8.3,15.64-13.31,2.77-1.35,4-4.62,5.39-7.34,3.48-.53,8.14-.4,11.46-3.24C778.68,385.26,781.71,378.79,781.62,378.85Z" transform="translate(0 0)"/><path class="cls-3" d="M809.27,404.1c0-.49,1-.36,1.29,0a1.06,1.06,0,0,0-.23-.61,11.85,11.85,0,0,0,2.07,1.23c-.23-1.78-.41-4.16-1.6-5.64-.88-1.1-4.38-2.75-4.34-4.12a5,5,0,0,1,2.42-.39c-1.36-1.52-3.31-3-5.44-2.26-.2.06-.42.15-.66.24-.48-1.5-2.16-1.54-3.42-1.89.3-.7,1.14-.48,1.66-.9-.45-.84-2-.36-2.86.06-.34-.37-.4-.73.13-1.06,1.16-.71,3.05,1.32,4.3.69-.11-.23,0-.75-.12-1,1.71-.29,2.63,1.09,4.11,1.28,0-2.15-2.32-3.44-2.59-5.4.06-.17.1-.32.14-.47a10.32,10.32,0,0,0,1.28.21,3,3,0,0,0-1.27-2,2.3,2.3,0,0,0-.46-.82c-.17-.19-.61-.46-.63-.7a5.42,5.42,0,0,1,2.37.71c.38-.66-.52-1.72-1.16-2a7.23,7.23,0,0,1-1.51-.9,4.69,4.69,0,0,0-.64-.86c.67-.42,1.94.56,3.16.11,0-.6-1.82-1.45-2.34-1.64-1.35-.48-2.81-.55-3.75-1.61-.36-.41-.28-1-.34-1.5.85-.05,1.08,1.26,2,1.75.11.06.52.33.48.46,1.81-1.17.56-2.37,1.25-3,.51.24.23,1.27.39,1.67.29.75,1.37,1.28,1.44,2.08.36,0,.54-.56.55-.81a2.15,2.15,0,0,1,1.18,2.09c0,.86.31,1.23.28,1.86a7.31,7.31,0,0,1,.56-1.12,3,3,0,0,0,.36-1.49c.33,0,.56.28.83.4-.47-2.9-3.37-4.79-3.33-5.16.2,0,.43.1.62,0-.79-1.69-3.1-2.59-3.61-2.85a1,1,0,0,1-.63-.67c.35-.31.68-.64.94-.86a1.65,1.65,0,0,0,.17-2.16c1.86-.3,1.28,1.9,3,3.29a3.49,3.49,0,0,0-1.63-3.87,2.78,2.78,0,0,0-2.14-.12,2.34,2.34,0,0,1-.43.06,4.28,4.28,0,0,0-.36-.26,2.06,2.06,0,0,0-.31-.13,8.17,8.17,0,0,0,2.08-1.12,3.44,3.44,0,0,0-1.92-.22c-.83-.67-1.93-.78-3-1.27-.37-.18-.63-.72-1-.8a4.22,4.22,0,0,0-1.26.18c-.37-.39-.55-1-1-1.27-.25-.14-.65-.17-.87-.29s0-1-.5-1.66c-.72-1-3.24-.47-3.24-.45-.16-1.66,1.19-2.45-.31-3.66.08-.05.79-.42.38-1a2.35,2.35,0,0,0-1.61-.92c.25-.05.26-.19.27-.34l.33.15c.82.36,1.84-.21,2.69-.46a.5.5,0,0,0,.27.14c2.09.48,1.1,1.36,1,1.68a3.57,3.57,0,0,0-.17,1.8c.34-.08.5-.48.86-.55a4.66,4.66,0,0,0,.65,2.86c1.67-1.64.51-2.57.95-3.19,1.79.14.78,1.61,1.85,2.28.43.26.52.76.9,1.07a1.64,1.64,0,0,1,.66,1.14,2.48,2.48,0,0,0,.12-1.56c-.84-1.58-.13-1.14-.48-2.29a3.11,3.11,0,0,0-.55-1.25c.49,0,.89.48,1.12.77a5.3,5.3,0,0,0,1.22,1,2.8,2.8,0,0,1,1.35,2.21,4.77,4.77,0,0,0,.43-1.27c0-1.27-.93-1.55-1.14-1.91a2.52,2.52,0,0,0-.72-.88c.05,0,.58-.39,2.59,1.12a8,8,0,0,1,2.17,2c.11-.93-.21-1.15-.39-1.8-.24-.89-.39-1.5-1.35-1.71a18.54,18.54,0,0,1-1.75-.67c-.85-.28-1.83,0-2.54-.62.5-.47,1.54-.15,2.26-.25-.38-.52-.76-.31-1.92-1.11s-2-.33-2.37-.6-.25-.58-1.13-.7a4.44,4.44,0,0,0,1.32-.15c.55-.05.61.11,1,.09a2.86,2.86,0,0,0-1.58-.78,2.71,2.71,0,0,0-1.79.21,1.38,1.38,0,0,1-.38.06,4,4,0,0,0,1.7-1,5.72,5.72,0,0,0-.88.21c-1.06.17-1.56-.32-2-.32s-.68.36-1.06.45v-.24a4.63,4.63,0,0,1-.43.24,2.56,2.56,0,0,0-.86-.12c.35-.15,1.58-.84,2.24-.62a2.17,2.17,0,0,0,2.53-.92,4.81,4.81,0,0,1-2.29.14c.24-.17.52-.3.78-.45,1-.57,2.33-.78,3.27-1.56a7.51,7.51,0,0,0,1.82-2.34c-1.09.5-1.77,1.55-2.82,2.06a6.42,6.42,0,0,0,1-2.11,4.71,4.71,0,0,0-1.69,1.45c-.59.74-.91,1.65-1.76,2.13a11.65,11.65,0,0,0,.92-2.07c.26-.54.82-.79,1.12-1.27a6.36,6.36,0,0,0-1.52.82,4.74,4.74,0,0,0-1.25,2c-.1.37,0,.82-.29,1.12a3.68,3.68,0,0,1-1,.7,1.33,1.33,0,0,1-.38.23,2,2,0,0,1,.93-1.87c.59-.39.8-1.26,1.15-1.78a5.08,5.08,0,0,0-2.07,1.35c-.32.5-.19,1.31-.32,1.87a1.31,1.31,0,0,1-.58.78,6.71,6.71,0,0,1-1.28.65c.17,0,.32-.33.39-.46s.07-.81.3-1.12a4.23,4.23,0,0,0,.72-1.14c.11-.29.25-1.13.59-1.27a4.06,4.06,0,0,0-2.13,2.07c-.21.57.19.91.09,1.44s-.8.91-1.19,1.12a3.82,3.82,0,0,1-.06-2.19,7.66,7.66,0,0,0,.91-1.48c.11-.32.33-.31.69-.8-.76.44-1.71.51-2,.87a1.55,1.55,0,0,0-.27,1.83,4.53,4.53,0,0,1,.34,1.74.94.94,0,0,1-.43.59,5.05,5.05,0,0,0-1.29,0,3.35,3.35,0,0,1,.07-.53,4.49,4.49,0,0,1,.8-1.86,8.4,8.4,0,0,0-.9.71,4.26,4.26,0,0,0,.35-.75c.17-.43.15-1.39.44-1.71.12-.14,1-.16,1.4-.42.69-.39,1-1,.94-1-.61.11-1.56.49-2.11.19a3.72,3.72,0,0,0,.77-2.61,3.72,3.72,0,0,1-1.36,1.17c-.52-.69-.2-1.75-.31-2.56s-.6-1.48-.48-2.32c-.53.43-.39.9-.44,1.49a10,10,0,0,0-.34,2.14A4.3,4.3,0,0,1,784,340c-.74,1.55,1.66,3.7,1.76,5.33a5.74,5.74,0,0,1-.7,2.29,1.44,1.44,0,0,0-.19.31,1.11,1.11,0,0,0,0,1,2.35,2.35,0,0,0-.71.44,1.18,1.18,0,0,1,1,0l.21.29-.86.61c-2.33,0,.05-2.91-.54-4.53s-2.51.41-2.94,1.32a9,9,0,0,1,.25-1.87c1.19-.31,3.38-.8,1.33-1.81a1.26,1.26,0,0,0-.43-.13.88.88,0,0,0-.19-1.13c-.15.22-.45.34-.61.54a2.83,2.83,0,0,0-.34-1.16,7.53,7.53,0,0,0,.72-1.8c.34-.6,1.1-1,1.5-1.52-1.15-.52-3.27,1.08-4.77,1.31-.12-.4-.25-.68-.43-.71-.86-.15-.81,1-1.79.53-.82-.43-.23-1.8-.8-2.53h0c.65.28-1.57-2.84-.63-3.27.75-.33,2,.62,2.79.32,0-1-1.67-2.25-.36-2.53.9-.2,2.89,1.22,3.22,2,.34-1.4-.38-2.74-.53-3.41.1-.05.75,0,.85-.1-.2-.46-.61-.82-.8-1.28.59-.07,1.19.39,1.82.29a5.64,5.64,0,0,0-1.06-3.11c1.1-.11,2.39.64,3.5.78-.48-1.14-1-2.68-2.1-3.45-.78-.56-3.4-1-3.63-1.93a3.57,3.57,0,0,1,1.53-.7c-1.17-.76-2.73-1.35-4-.49-1,.65-2.75,2.43-4.64,1.29.72-1.38,2.13-.27,2.82-1.29-.52-.28-2.91-.48-2.32-1.31,1.57,0,3,.57,3,.14a4.1,4.1,0,0,0,0-1.28c1-.33,1.8.31,2.75.18-.4-1.56-2.5-1.93-2.82-3.46a.72.72,0,0,0,.25,0,1.15,1.15,0,0,0,.37.18,1.51,1.51,0,0,1,.87.63,2.65,2.65,0,0,0-.52-1.16,4.35,4.35,0,0,1,1.44.21c-.25-1.43-1.64-1.8-3-2.08a1.93,1.93,0,0,0-.58-.45c.28-.18.74.06,1,.19a3.52,3.52,0,0,0,1.16.33,2.54,2.54,0,0,1,1.74,1.18,5.09,5.09,0,0,0-.26-1.09c-.51-1-1.21-.83-1.49-1a2.23,2.23,0,0,0-.8-.4s0-.08.23-.15a29.9,29.9,0,0,1,3.3.49,3.82,3.82,0,0,1,.64.32,1.63,1.63,0,0,0-.11-.23,8.35,8.35,0,0,0,3,.09c-1.18-2.89-7.13-2.7-7.15-3.58,0-.59,1.13-1.46.71-1.66-1-.47-3.19.54-4.24.18a3.8,3.8,0,0,0,.69-1.7c-1.62-.53-3,.12-4.46.92a22.86,22.86,0,0,0-1.83,1.42l-.55.11c1.06-1,1.11-2.84,1.47-4.17-1.38,1.07-1.57,2.8-2.42,4.12l0-.06a1.92,1.92,0,0,0,.34-1.18,5.25,5.25,0,0,0-1-.41c-.09-.31-.16-.63-.24-.95a.93.93,0,0,0-.24.82,6.65,6.65,0,0,0-3-.05l-.09-.17c.09-.34,0-.6.42-.94a2.51,2.51,0,0,0-1.64-.56,5.32,5.32,0,0,0-.79-.47c1.25,0,2.47.8,3.73,1-.1-.2-.05-.57-.13-.78,1.46-.07,3.25.18,4.49-.36a15.31,15.31,0,0,0-4.49-2.36,2.24,2.24,0,0,1,2-1.67c-1.38-.86-2.61-.51-4.19-.09-.55.15-1.85.43-2.12.11a.1.1,0,0,1,0,0c-.07-.16,0-.43.49-.86.3.42.58.86,1.15.91-.34-1.89-1.32-2.2-2.87-2.76,1.29-.9,2,1,3.21,1.09.07-1.15-1.4-1.44-2-2a3.33,3.33,0,0,1,1.79-.35c.84.72.4,2.07,2.38,2.15-.15-.28-.5-.54-.44-.91a4.24,4.24,0,0,0,2.22.41c1.34-.12,1.52,1.36,3.22,1.91-.34-1.39-.93-1.56-1-1.87,1.88.53,1.06,1.39,2.16,2.63.31.34,1.12.82,1.22,1.3a3.71,3.71,0,0,0-.15-1.81c-.12-.31-.4-.46-.58-.72a4.52,4.52,0,0,1-.48-1.13c.2,0,.32-.2.51-.09s.07.82.69,1c.21,0,.39-.07.56.09s.13.35.18.52a2.34,2.34,0,0,0,1.41,1.1c.41.16.63.53,1,.81-.18-.22,0-.61-.07-.9a3.32,3.32,0,0,0-1.33-2.06c.16-.15,2,.53,3.51.65a5.28,5.28,0,0,1,1.55.2c-1.17-1.51-2.25-1.66-2.76-1.59-.2,0-.55.17-.73.08a3.13,3.13,0,0,1,1.34-1.13c-.35-.51-1.44-.42-1.88-.15-1,.63-2,.74-2,.57-.1-.6,1.09-.94,1.18-1.88-.44-.27-1.7.48-2,.72-.83.61-1.38,1.46-2.49,1.58a2.72,2.72,0,0,1-1.23-.43c.27-.54,1.31-.12,2-.47.08-.05.43-.18.51-.1-.23-1.59-1.55-1.34-1.77-2,.35-.2,1,.4,1.36.48.66.14,1.42-.29,2,0,.12-.22-.22-.57-.4-.68a2,2,0,0,1,2,.17c.64.36,1,.34,1.47.63a6.37,6.37,0,0,1-.63-.82,3,3,0,0,0-1-.85c.11-.21.41-.22.59-.33-2.3-.95-4.7,0-5-.18.07-.12.22-.22.23-.36a3,3,0,0,0-.67,0,9.56,9.56,0,0,0,.2-1.84,1.29,1.29,0,0,0-1.08-1.32c.89-1.2,1.77.37,3.52.22a2.73,2.73,0,0,0-2.47-1.4c-.68-.62-1.77-1-1.48-1.22s3.44-.18,4.4.84a2.39,2.39,0,0,0-1.93-1.95c-.74-.06-1.44.42-2,.43,0,0,1.5-.48,1.26-1.3-.92.22-1.83,1.72-2.76,1.66-.41,0,.23-.65.65-.78-1.13-.08-1.68,1-2,1.49-.73,1.13-2,1.76-2.82,2.81l-.08-.06c-.25-.19.18-.53.31-.7a1.92,1.92,0,0,0,.06-2.09c-.07.21-.12.61-.32.74a2.31,2.31,0,0,1,.37-1.52,2.68,2.68,0,0,0-.21-2c-.12.39.13.85-.14,1.23A4.62,4.62,0,0,0,759,284a15.93,15.93,0,0,0-2.56-4.61,2.33,2.33,0,0,1,2.67-.33,4,4,0,0,0-2.55-2.12,14.63,14.63,0,0,0-1.77-1.16c.78-.18,1.69.24,2.42,0-.88-1-2.06-.54-3.18-.78a4.62,4.62,0,0,1,.51-.13,1.22,1.22,0,0,0-.23-.27.91.91,0,0,0,.47-.38,1.94,1.94,0,0,0-1.07-.1,26.1,26.1,0,0,0-3.68-2,1.57,1.57,0,0,0-.29-.13c-.5-.22-1-.41-1.4-.55.38-.17.75-.37.66-.68a1.29,1.29,0,0,0-1.14.54c-.45-.11-.77-.13-.9,0a3.63,3.63,0,0,1,2.06-.66,7.57,7.57,0,0,0-3.95-1.83c.32-.44.37-.94.66-1.34a4.82,4.82,0,0,0-1,.14,3.55,3.55,0,0,1,.2-1,4.4,4.4,0,0,0,1.39,1.05c0-.16.1-.8.06-1a12.71,12.71,0,0,0,1.79,1.16c-.86-3,1.66,0,3.19.18-.11-.59-1.37-2.81-.87-3.16h0a4.16,4.16,0,0,1,.37,1,1.64,1.64,0,0,0,.29-1.05,3.28,3.28,0,0,0,1.28.11,4.14,4.14,0,0,0-1.22-2.73,1.24,1.24,0,0,1,1,.26c.41.43.08,1.53,2,2.93.37-1.06-1.24-2.63-.76-2.7s3.1,1.5,3.45,2.86a2.38,2.38,0,0,0-.75-2.64c-.62-.41-1.46-.33-2-.6,0,0,1.54.3,1.74-.54-.92-.25-2.44.63-3.22.13-.34-.22.51-.46.94-.37-.95-.62-2,.09-2.45.36l-.14.07-.12-.12a4.05,4.05,0,0,0,.76-.53c1-.88,2,.21,3.73-.34a3.39,3.39,0,0,0-1.47-.79.54.54,0,0,0,0-.29c1.4-.35,1.39.67,2.87,1,.45.1,1.39,0,1.75.34-.61-.9-.66-1-1.18-1.37-.28-.19-.6-.14-.9-.25a4.5,4.5,0,0,1-1-.63c.14-.15.14-.35.36-.37s.54.62,1.13.37c.2-.08.28-.28.5-.24s.31.2.46.31a2.41,2.41,0,0,0,1.79.07,3.26,3.26,0,0,1,1.24.09c-.28-.07-.39-.47-.58-.69a3.32,3.32,0,0,0-2.29-.88c0-.22,1.93-.75,3.23-1.54a5.57,5.57,0,0,1,1.37-.75c-1.84-.54-2.79,0-3.17.33-.15.14-.35.46-.55.5a3.23,3.23,0,0,1,.43-1.71c-.59-.2-1.42.51-1.61,1-.47,1.12-1.2,1.77-1.32,1.65-.44-.42.33-1.39-.15-2.21-.51,0-1.09,1.39-1.22,1.77-.31,1-.26,2-1.09,2.74a.91.91,0,0,1-.16.11,3.73,3.73,0,0,0-.4-.61,2.11,2.11,0,0,0,.65-.68c0-.08.25-.39.36-.37-1.12-1.16-2-.18-2.63-.61.17-.37,1.06-.27,1.39-.41.61-.27,1-1.06,1.65-1.18,0-.25-.51-.33-.73-.32a2,2,0,0,1,1.69-1c.72-.08,1-.32,1.55-.36a6.48,6.48,0,0,1-1-.29,3.11,3.11,0,0,0-1.29-.12c0-.23.2-.41.29-.61a7,7,0,0,0-3.1,1.83c-.32-.92-1.28-1.58-2-2.27.61-.45,1.23.16,1.89.05,0-1.07-2-1.42-2.81-1.38a2.78,2.78,0,0,1-1.25,0c-.44-.17-.64-.6-1.08-.75a2.77,2.77,0,0,0-1,0,5.65,5.65,0,0,0-.3-.55l.18,0-.31-.13a6,6,0,0,1-.38-.54,2.14,2.14,0,0,1,.72-.14c-.17-.45-.46-.46-.88-.47a.61.61,0,0,1,0-.14c.34-.17.68-.33,1-.51l.08,0a2.36,2.36,0,0,1,.9,1.36c0,.14.8,2,1.07,1.73.74-.81-.62-1.79-.89-2.43,1.62-.56,1.69,1.39,2.81,2.26.75-1.13-.24-2-1.13-2.38.9.07,2.62.91,3.58.67a2.73,2.73,0,0,0-1.64-1c-.71-.14-1.33.16-2,.08-.06-.46.83-.65,1.17-.64a13.56,13.56,0,0,1,3.42.61,4.31,4.31,0,0,0-2.46-1.34c-.79-.16-1,.48-1.74.57-.07-.15.11-.38.08-.56-.58.16-1,1-1.24,1.17a.74.74,0,0,1-1.12-.21.94.94,0,0,0,.88-1.06c.32-.28.36-.57-.47-.74s-1.82,1.14-2.78.7a3.09,3.09,0,0,0,1.62-3,7.53,7.53,0,0,1,.73-1.23c-.87-.16-2.06,1.37-3,1.69l-.18.05a2.11,2.11,0,0,0,.19-.23,15.74,15.74,0,0,0-3.8.79,3.78,3.78,0,0,0,.77-1.49,2.12,2.12,0,0,0,1.82.05c-.36,0-.91-.52-1.6-1.16,0-.19.05-.38.07-.57a2.32,2.32,0,0,0,1.83-.7,2.54,2.54,0,0,1-1.76,0c0-.37.07-.74.13-1.09a1.84,1.84,0,0,1,.43-.09c-.94-.49-1.93,0-2.92,0,.36-1,1.3-1,2.09-1.44a3.92,3.92,0,0,0,1.72-1.67c-1.1.78-1.81.28-2.7.55a3.52,3.52,0,0,1,2.61-1.88c-.65-.43-.88,0-1.54,0a2.11,2.11,0,0,0-2.22,2.21,9.36,9.36,0,0,1-.63,3,2.28,2.28,0,0,0-.92.13,1.86,1.86,0,0,0-.73.48c-.31-.38-.57-.84-.23-1.08.12-.07,1.11-.57,1.57.11,0-.24-.2-.87-.45-1s-.52.19-.78.26-.6-.13-.79,0h0c-.16-.27-.34-.48-.1-.68s1.46-.18,1.8-1.19c-.66-.24-1.29.49-1.79.4,0,0,3.21-1.43,2.82-3.43-1,.94-1.95,2.57-3.46,2.76.65-1.7,1.82-1.36,2.43-3.51-.76.44-1.89,1.81-2.73,2-.26-1,1.87-1.69,2.1-3.82a12.74,12.74,0,0,0-2.4,2.15c.28-1.42-.75-3-1.23-4.25-.5,1.68.35,3.19.43,4.76a7.86,7.86,0,0,1-2.27-1.57c-.17,1.12,1.71,1.38,1.55,2.37a3.71,3.71,0,0,1-1.84-.84c.22,1.15,2.44,1.59,3.17,2.4,1.07,1.21,1,2.19,1.46,2.52-.09.2.07.48,0,.68-.81.12-1.73-1.23-3.2-1-.65.08-1.2-.28-1.71-.17.43.41,1.33,1.19,2,1.16.3,0,1.21-.28,1.57.32a2.44,2.44,0,0,0-1.25.72,2.05,2.05,0,0,0,1.1.07c.35-.1.61-.42,1-.48s.79.26,1.17.54c-.48.64-.65,1.52-1.28,2.12.53,0,.94-.53,1.47-.56l-.18.54a1.22,1.22,0,0,1-.07-.17,1.27,1.27,0,0,0-.06.58,2.87,2.87,0,0,0-.09.78c0,.73.46,1.16.58,1.81,0-.37,0-.82,0-1.27a11.07,11.07,0,0,1,1.4,2.53c0,.1,0,.2.06.3a2,2,0,0,0-.25.14c-.68.46-1.2,2.35-1.91,2.88a4,4,0,0,0-.43-2l0,.06a2,2,0,0,0-.31-1.22c0-.07,0-.14,0-.21,0-.46-.25-1.37,0-1.78-.78.76-.89.83-1.14,1.41-.14.31,0,.61-.08.92a4.92,4.92,0,0,1-.43,1.16c-.17-.12-.37-.09-.43-.29s.51-.65.16-1.19c-.11-.17-.32-.22-.33-.45s.14-.34.22-.5a2.34,2.34,0,0,0-.26-1.77A3.41,3.41,0,0,1,733,244c0,.29-.39.47-.57.7a3.07,3.07,0,0,0-.46,2.26,2,2,0,0,0-.32-.22,26.51,26.51,0,0,0-1.77-2.53,5.7,5.7,0,0,1-1-1.21,3.32,3.32,0,0,0,.78,3,3.89,3.89,0,0,0-2.06.21,2.49,2.49,0,0,0,.53-.67c-1.66.11-3.73.83-5.43.28a.73.73,0,0,1,.23-.76c1.58-.48,2.6.27,4.75-1.23-.84-.13-2.26.06-3.42,0a4,4,0,0,0-1.14-.46c.84-.95,3.47-.08,5.45-2a17.88,17.88,0,0,0-4.47.21c1.55-1.28,1.79-3.85,2.41-5.66-1.58,1.08-2.18,2.77-3,4.31a5.72,5.72,0,0,0,.1-1.93c-.14-1.94,1.36-3.64.38-5.66a16.5,16.5,0,0,0-.58,1.58c-.27-.6,0-1.55-.17-2.23a2.81,2.81,0,0,0-1.11-1.81c.45,1,.16,2.13.26,3.18a10.51,10.51,0,0,0,.62,2.24c-.49-.84-.91-2-1.92-2.41a16.84,16.84,0,0,0,.91,2.13c.32.63,1,1.27,1.18,1.93a2.6,2.6,0,0,1-1-.85c-.28-.33-.77-.86-1.23-.78a4.7,4.7,0,0,0,1,2.26c.46.41,1.14.47,1.24,1.2-.41,0-.7-.59-1.18-.65.33.31.45.64.76.86,1,.73.36,1.53.11,2,0,0,0,.08,0,.07l-.08.12a10.89,10.89,0,0,1-1.07-3.68c-1.16,1.05.63,3-.42,3.91a5.24,5.24,0,0,1-1.24-2.53,3.4,3.4,0,0,0,.36,2.71,4.87,4.87,0,0,0-2.54,1.63l0,0c.07-.78.51-.93.36-1.38a2.43,2.43,0,0,0-.86.07,6.54,6.54,0,0,0,.55-.65,1.1,1.1,0,0,0,.11-1.09c-.15-.43-.17-1-.35-1.37-.83.6-.26,1.83-.66,2.49a1.6,1.6,0,0,0-.27.85c-.43.21-.8.48-1.14.68l-.11,0a1,1,0,0,0-.29,0c.35-.66,1.24-1.6,1.22-2.11a3.56,3.56,0,0,0-1.4.35,1.16,1.16,0,0,0,0-.18,1,1,0,0,0-.53.48l-.24.15c.37-.75.94-2.24.09-3.08,0,.23-.09.48-.12.74-.07-.65-.11-1.61.38-1.59.14,0,1.23.21,1.19,1,.12-.21.36-.81.24-1.07s-.53-.16-.78-.26-.39-.47-.65-.46-.32.44-.55.57c-.72-.39-.65-2-1.92-2.76-.57-.33-.79-.95-1.26-1.17.09.59.34,1.75.87,2.11.24.16,1.12.5,1.06,1.2a2.45,2.45,0,0,0-1.44-.18,2,2,0,0,0,.83.72c.35.13.74,0,1.06.2.57.28.56,1.47.92,2a3.38,3.38,0,0,1-.87,2.25c-.33-1.41.59-1.71,0-3.4-.3.63-.44,2-.89,2.56-.63-.56.48-1.94-.32-3.45a9.77,9.77,0,0,0-.62,2.49c-.45-1.07-1.82-1.62-2.72-2.26.43,1.33,1.66,2,2.42,3a6.24,6.24,0,0,1-2.2,0c.39.81,1.74.15,2.08.87a3,3,0,0,1-1.59.27c.66.65,2.32,0,3.16.17a2.94,2.94,0,0,1,.71.25,6.33,6.33,0,0,0-1.36,1.84c-.53-.27-.65-.85-1.38-1.22a.9.9,0,0,0-.28.6,2.75,2.75,0,0,0-.22-.26,2,2,0,0,0-1.37-.62c.65.4.94,1.19,1.42,1.76a5.4,5.4,0,0,0,.79.72,1,1,0,0,1,.07.15,2.46,2.46,0,0,0-1.69-.44,13.63,13.63,0,0,0,1.39.89l.36.15,0,.05c-.68,0-1.81-1.27-2.5-1.35a4.49,4.49,0,0,0-1.13.13c-.84,0-1.34-.65-2.19-.87a5.33,5.33,0,0,0-2.24.08c-.79.12-2.17-.54-2.73-.11a5,5,0,0,1,.95.6,2.45,2.45,0,0,0,2.2,1.51c-.51.65-1.62,0-2.2.5-1.1.89.71.73,1.17.79,1.17.15,2.64-.21,3.77.33h0a2,2,0,0,1-.39.45c-.46.07-.94.14-1.12.42a4.2,4.2,0,0,1,.74.37v.09l.06,0c1.59,1.08-2.12,1.68-2.75,2.13-1.22.89-2.26,2.71-1.48,3.74.53-.4,1.87-.45,2.12.26.14.4-.61.45-1.16,1.2-.82,1.13-.79,2.59-.42,2.53,2.7-.43,3-1.87,3.22-1.54s-1.55,2.34-.61,4.33c.42-.06,1-.8,1.35-.75s.38,2.07.52,2.53c1-.66,1.72-3.64,2.17-1.26a11,11,0,0,0,.85-1.45c0,.12.36.52.38.65a3.55,3.55,0,0,0,.61-1.23,3.53,3.53,0,0,1,.62.86c-.09-.61.29-1.24.07-1.82-.12-.31-.4-.46-.62-.65.3-.23.87-.75,1.43-.46a2.45,2.45,0,0,0-.71,1.26,2,2,0,0,0,1-.49c.25-.28.31-.67.58-.91s.91-.16,1.41-.12a1.24,1.24,0,0,0-.51.43c.27,0,.31-.11.7-.07a2.57,2.57,0,0,0,.92.12c-.61.11-.51.35-.79.6s-.94-.09-1.65.51-1.08.5-1.34.95c.5.08,1.23-.2,1.58.2-.5.5-1.19.3-1.78.53a10.49,10.49,0,0,1-1.22.58c-.66.17-.77.69-.94,1.45a3.38,3.38,0,0,0-.27,1.53,6.33,6.33,0,0,1,1.51-1.67c1.41-1.28,1.77-.92,1.81-.95a2.2,2.2,0,0,0-.5.74c-.15.31-.82.55-.8,1.64a5.18,5.18,0,0,0,.3,1.07,2.51,2.51,0,0,1,.95-1.88,4.28,4.28,0,0,0,.85-.85c.15-.25.44-.68.78-.66a2.75,2.75,0,0,0-.39,1.07,2.7,2.7,0,0,0,0,1,2.42,2.42,0,0,0-.35,2l0-.07c0,.13.06.26.08.36a1.75,1.75,0,0,1,.26-.74,7.45,7.45,0,0,1,1.11,2.85h-.11c-.26.07-.44.53-.7.68h0a2.7,2.7,0,0,0-2.24-.28,3,3,0,0,1,.81.51,3.53,3.53,0,0,0-.72,0c-.52.1-1.67.37-1.82.9a2.31,2.31,0,0,1,1.6.31l.15.08-.14.05a1.74,1.74,0,0,0-.49-.2c-.69-.18-1.7.33-2.44.31a2.43,2.43,0,0,0,.42.77c-.92,0-2.29.24-2.49,1.13.52.14,1.11,0,1.61.2a2.74,2.74,0,0,0,.77.25,5.23,5.23,0,0,0-.91.22,2.44,2.44,0,0,0-.64,0,3,3,0,0,0-.82.24,5.87,5.87,0,0,1-.72-.08,4,4,0,0,0-2.63-1.3c-.31,0,0,.44.22.92l-.24,0a8.92,8.92,0,0,0-3.8-2.66,2.83,2.83,0,0,0-2.48.58c1.08,1,2.93,1.1,3.74,2.23l-.2.06c-1.22-.13-3-.86-5,.2.41,1,2.78,1.42,3,2.34-.68.19-2.43-.19-4.19-.06a.85.85,0,0,0,0-.23,2,2,0,0,0-.52.29,6.27,6.27,0,0,0-1.06.24c.29-.59.63-1.16,1-1.71a4.32,4.32,0,0,0-2,2,1.06,1.06,0,0,0-.1.26,4,4,0,0,0-1.06,1.1l1.23.19a.89.89,0,0,1,0,.28c-.17,0-.34-.2-.51-.23,0,.61.68,1.25.77,1.52.18.51-.05.82-.52,1,.1-.84-.45-1.27-1.3-1.15-.25,0,.5.76.53.79.23.19.89.6.42.9a3.88,3.88,0,0,1-.78-.59c-.37.26-.06.72.15,1s.33.24.36.42a1.75,1.75,0,0,0,.42.85,1.09,1.09,0,0,1,0,.85,6.35,6.35,0,0,0-.24,1.06.22.22,0,0,1,0-.08c-.18-.26-.72-.64-.79-.93,0-.12.3-.6.33-.95a1.25,1.25,0,0,0-.18-.94c-.19.39-.36,1.08-.74,1.27a2.66,2.66,0,0,0-1.16-1.49,2.62,2.62,0,0,1,.11,1.24c-.6,0-1.06-.6-1.56-.86s-1.07-.25-1.49-.66c0,.47.34.58.65.84s.89,1.06,1.07,1.06a2.67,2.67,0,0,1-.56,0c.58,1,2.75.56,3.7,1.16a1.36,1.36,0,0,1,.36.32.87.87,0,0,0-.53-.18c-.67,0-1.19.77-1.48,1.29s0,1.27-1,2.41a10,10,0,0,0-.22-2.09c-.69.82-.41,1.73-.33,2.65-.14.12-.28.24-.44.36a.91.91,0,0,0-.43-.38,1.66,1.66,0,0,0,0,1,1.14,1.14,0,0,0,.19.66,6.29,6.29,0,0,0,.51,1.21,1.42,1.42,0,0,0-.08.18,5.06,5.06,0,0,0-.66-.45,3.15,3.15,0,0,0,.24.38l-.24-.09c-1.83-.64-2.79-2.71-5-2.62.28.45.89.75,1.22,1.17-.66,0-1.43-.6-2.12-.75a2.78,2.78,0,0,0-2.09.29c1.08,0,2,.72,3,1a10.39,10.39,0,0,0,2.3.34c-1,.11-2.21,0-3,.79a18,18,0,0,0,2.32,0,12.71,12.71,0,0,1,2.23-.31,2.56,2.56,0,0,1-1.19.61c-.41.12-1.09.36-1.21.81a4.74,4.74,0,0,0,2.48,0c.53-.25.85-.8,1.49-.68l-.09.24c-.27.19-.69.29-.88.6a4.27,4.27,0,0,1,.73-.2c-.1.26-.19.53-.28.77a13.31,13.31,0,0,0,2.14-.7c.14.16.25.34.34.46h0a2.5,2.5,0,0,0,.43.59,3.26,3.26,0,0,0,.38.27,5.23,5.23,0,0,0-.22,1,13.69,13.69,0,0,1-3.07-.06c-.16,0-.39-.12-.65-.17a2.08,2.08,0,0,0,.47-.93c-2-.16-5.05,1.57-6.52,4.13-.7-.44-.8-1.25-1.77-1.84-1,1,0,2.24.31,3.25-.27.21-.52.43-.76.64-.85-.56-1.84-1.69-2.55-1.84a7.54,7.54,0,0,0-1.58.05,1.94,1.94,0,0,1-.8-.21,8.91,8.91,0,0,1-.08-1.16c0-.67-.16-.75-.56-1.27s-.63-1.29-1.2-1.51c.14.75,1,2,.72,2.69-.26-.25-.32-.62-.65-.76.1.32.1.62.18.93a3,3,0,0,0-2.88-1.08l.92.72c-.53,0-1.08,0-1.66.08-1.1.08-2.92-1-3.74-.44a7.86,7.86,0,0,1,1.25.94,4.17,4.17,0,0,0,1,1.56l-.77.5c.6,0,1.1,0,1.64,0a4.44,4.44,0,0,0,.94.24c-.78.84-2.23-.15-3.09.44-1.61,1.11.9,1.09,1.53,1.22a11.16,11.16,0,0,0,1.8.19.88.88,0,0,0-.35.34c-.17.42.43.68.76.87a8.87,8.87,0,0,1-1.37.55,2.27,2.27,0,0,0-2.84-.37,6.47,6.47,0,0,0,2.31.85,2.94,2.94,0,0,1-1.43.22,2.26,2.26,0,0,0-1.69.25,2.76,2.76,0,0,0-1,3.18c1.26-1.23.64-2.92,2.13-2.82a1.31,1.31,0,0,0,.29,1.69c.23.16.52.41.84.63-1.54,1.2-2.76,3.26-1.9,4.6.78-.49,2.63-.42,2.89.58.15.58-.89.57-1.72,1.54-1.27,1.47-1.38,3.48-.86,3.44a6.44,6.44,0,0,0,4.26-1.7,7.5,7.5,0,0,0-.88,2.12c0,.22,0,.42-.06.61a4.48,4.48,0,0,0,0,3.09c.58,0,1.45-1,1.94-.89s.3,2.9.43,3.54c1.48-.79,2.77-4.83,3.14-1.49a15.17,15.17,0,0,0,1.32-1.92c0,.18.44.76.45.94a4.67,4.67,0,0,0,1-1.62,4.6,4.6,0,0,1,.77,1.25c-.06-.85.54-1.67.29-2.5s-1.11-.92-1.14-1.7c0-.12.42-3.41,1.58-1.32.41-.15.59-2.54.88-2.88.16.4.45,3,.67,3.36a4.15,4.15,0,0,0,1.26-2.8c.34.58,1,2.57,1.56,2.95.85-.69-.34-3.26-.62-4.5a1.85,1.85,0,0,1,.4.24,1.46,1.46,0,0,0-.08-.27c.56.55,1.41,1.64,1.73,1.84-.05-1-.93-3,1.12-3.25.47-.05.81-.75,1.22-1-.39,1-.29,1.46.07,1.56a4.13,4.13,0,0,0-.3,2.19c.53-.4.82-1.18,1.3-1.65.08.82-.57,1.85-.67,2.72a3.53,3.53,0,0,0,.61,2.57,7.06,7.06,0,0,1,.68-3,1.88,1.88,0,0,0,0,.78c.41-.42.8-1,1.22-1.48a2.45,2.45,0,0,0,.48.54c0-.35,0-.7-.05-1a3.69,3.69,0,0,1,1.71-1.15,2.36,2.36,0,0,0,0,.37c-.64,1.42-1.75,1.35-2.23,3.5.72-.48,1.73-1.8,2.57-2.24.06.14.13.28.2.43-.32.87-1.89,1.77-2,3.69a13.46,13.46,0,0,0,2.43-2.46c-.21,1.55,1,3.13,1.58,4.49.43-1.82-.55-3.39-.75-5.06l.11,0a5.06,5.06,0,0,1,1.23.62,3.91,3.91,0,0,1-.49.51,3.54,3.54,0,0,1,1-.1l.63.47a.81.81,0,0,0-.08-.47,1.75,1.75,0,0,0,1.21-.74c.29-.31.51-1,1-.93a2.14,2.14,0,0,0,1.33-.19c-.56.53-.61,1.31-1.1,1.86a1.71,1.71,0,0,0,.91-.66,4.65,4.65,0,0,1-1.21,2.69,3.78,3.78,0,0,0,1.77-1.39c.28-.56.84-.9.91-1.56s-.22-1.14,0-1.66a1.64,1.64,0,0,0,.19-.25,1.75,1.75,0,0,1,.87-.34,4.93,4.93,0,0,0-.49,1.75,8,8,0,0,1-.17,1.3c.48-.26.91-.44,1.12-1,.12-.28.1-.94.49-1,0,.19,0,.41.17.46a.51.51,0,0,0,.4-.17,2.49,2.49,0,0,0-.28.86,1.57,1.57,0,0,0-.3.12,4.3,4.3,0,0,0-1.46,1.18,2.79,2.79,0,0,0-1.16.33c.32.16.79.36.9.74a2.15,2.15,0,0,0-2.28.69c.24.07.5-.11.73,0a4.68,4.68,0,0,0-1.33,1.43,7.81,7.81,0,0,1,2-.49,3.58,3.58,0,0,0,1.63-.19,2,2,0,0,1-.32,1.52c.36-.15.72-.2,1-.56.7-1,.36-2.14,1.71-2.37a.66.66,0,0,0,.26.85,4.38,4.38,0,0,0,.5-.4s0,.06.05.07c-.06.24-.36.45-.54.6a4.76,4.76,0,0,0-1.79,1.77,4.32,4.32,0,0,1-1.1,2c1.06-.15,1.59-1.19,1.89-1.36.18.26,0,.46,0,.73.31-.29.57-.64.89-.91s.67-.4,1-.65.38-1.39,1-1.86a2.44,2.44,0,0,1,.23,1.1c.43-.48,1.18-1.22,1.06-1.86a1.89,1.89,0,0,0,1.6.22c-.5,1.06-1.82,1.19-2.3,2.2,1.11.31-.38,1.69-.46,2.4a10.64,10.64,0,0,1,1.71-1.4c-.06.21,0,.57-.12.77a4.89,4.89,0,0,0,1.13-.71c.36,1.25-1.82,2-1.39,2.88.71-.41,1.09-1.18,1.78-1.59.57.62-.54,1.85.73,3.2,1-1.25.2-1.34.31-2.2a11.85,11.85,0,0,1,.73-1.76c.08-.27.15-.53.21-.8l.23.06a1.31,1.31,0,0,0,1.52-.79h0a1.35,1.35,0,0,0,.3.68c0,.73-1.08,1.36-1.24,2.72l.08,0a1.79,1.79,0,0,0-.14.77c1.39-.3,2-2.16,2.25-3.31.66.6.15,1.85.37,2.54,1.07-.67.75-2.49.8-3.08.12.08.33.12.41.17a2.37,2.37,0,0,0,0-1.9,7.76,7.76,0,0,0,.56-2.52,4.54,4.54,0,0,1,.27,2.31,6.61,6.61,0,0,0-.53,2,5.41,5.41,0,0,0,1.35-1.65,2.39,2.39,0,0,1-.55,1.65,2.58,2.58,0,0,0-.4,1.11.84.84,0,0,0-.29.52c.52,0,1.14,0,1.77,0,.1.18.2.35.29.53a2.12,2.12,0,0,0,.5-.55,4.74,4.74,0,0,1,1.76.25c-.17,0-.56.28-.83.36a3.37,3.37,0,0,0,.72,1.27c-1.25-.21-2.75-.61-3.88.14-.38.26.86.62,1.28,1a8.87,8.87,0,0,0-5.26-.42,3.73,3.73,0,0,0-.55.3,11.14,11.14,0,0,0-1.29,0c.1.34.11.81.23,1.2,0,0,0,.09,0,.14-1.76-.95-3.07-2.83-5.34-2.49-.29,0,.16,1.42-2.36.46-.75-.28-1.73-.76-2.2.15-.78-.48-2.54-2.07-3.64-1.27-.29.21.53,1.25,1.28,2.24a3.94,3.94,0,0,0-.71.65l-.31-.26a4.58,4.58,0,0,0-2.3-1.67c-.51-.08.5,1.45.54,2-.2,0-1.06-.2-1.25-.2.11.3-.11.5.75,1.36-1.32-.07-2.49-.87-3.83-1-4.24-.33,3.91,2.6-3.28,1.87a1.09,1.09,0,0,0,.08.15,4,4,0,0,0-2.24-1.69c0,.17.19.32.13.52a2.06,2.06,0,0,0-.95.18,5.2,5.2,0,0,1-.76.3c.39,0,.57.2,1.09.23.16,0,1,0,1.1.78-.15,0-.51.1-.56.32.31.05.49.36.7.62a.61.61,0,0,0-.28.72.77.77,0,0,0,.07.16,2.08,2.08,0,0,0-.47.41c.08,0,.19.23.21.3.17.58.93.76.78,1.28-.29-.05-.66,0-.86-.25-.51-.61-.35-1.5-.45-2.34,0-.32-.3-1.47-.67-1.48-.45.74,0,1.56-.38,1.95-.11.11-.56-.42-.76-1.38-.08-.4-.6-1-1-.77a3.12,3.12,0,0,1,.1,1.47c-.14,0-.25-.29-.34-.4-.23-.29-.87-.69-2.27-.11a2.72,2.72,0,0,1,.9.58c.85.61,2.17,1,2.17,1.16a2.76,2.76,0,0,0-1.78.9c-.17.21-.3.56-.51.64a2.32,2.32,0,0,1,.92-.16,1.58,1.58,0,0,0,1.31-.15c.12-.11.24-.27.37-.3s.21.12.34.18c.4.19.74-.4.87-.39s.13.18.22.3a4.38,4.38,0,0,1-.85.62c-.23.11-.46.08-.68.26a4.34,4.34,0,0,0-1,1.28c.31-.32,1-.29,1.32-.4,1.23-.4,1.25-1.42,2.51-.94-.19.21-.58.06-1.49.93a2.33,2.33,0,0,0,1.39,0,4.1,4.1,0,0,0-1.67,1.53,15.82,15.82,0,0,0-.91,2.68c-.56,0-.74-.17-1.16,0a11,11,0,0,0,1,.66c0,.19-.08.39-.11.59-.56-.11-1-.53-1.58-.66a13.84,13.84,0,0,1-1.59-.24c-.78-.28-1.23.17-1.9.8-.49.46-.84.5-1.29,1.33a7.58,7.58,0,0,1,2.61-.64c2.24-.33,2.36.28,2.42.27a2.52,2.52,0,0,0-1,.4c-.36.2-1.18,0-1.88,1.08a5.26,5.26,0,0,0-.42,1.27,3,3,0,0,1,2.19-1.23A4.84,4.84,0,0,0,681,340a2.1,2.1,0,0,1,.85-.23c0,.09,0,.18,0,.27a6.32,6.32,0,0,0-.74.63c-.9.8-.16.76-1.63,1.69a2.94,2.94,0,0,0-.81,1.37,1.79,1.79,0,0,1,1.1-.65c.44-.08.79-.45,1.23-.48,1.12-.06,1.26-1.77,2.57-1.05,0,.72-1.37,1-1.16,3.13a5.73,5.73,0,0,0,2.08-2.1c.21.22.09.63.28.86a4.44,4.44,0,0,0,.9-1.6c.1-.31-.08-1.52,1.63-.94.44.14.85-.39,1.18-.69.05.12-.09,1.16.4,1.44,1.34.76.22.9.58,1.33a3.06,3.06,0,0,0-1.91.09c-.07.4.66.45,1.16.8a7.91,7.91,0,0,0-3.1,1.75.73.73,0,0,0,.38.15,2.34,2.34,0,0,0-1.29.75h0c.24.16.52,0,.79,0a2.78,2.78,0,0,0-.31,2c.14.4-.6.45-.87.54a2.55,2.55,0,0,0-1.67,2.26c.24-.18.6-.59.92-.58-.24.71-1,1-1.58,1.39a3.62,3.62,0,0,0-1.31,2.39c.43-.34.52-1,1.09-1.25a6.78,6.78,0,0,0-.21,1.92,13.92,13.92,0,0,1,.07,2,4.85,4.85,0,0,1,1-1.05,1.73,1.73,0,0,0,.49-1.46c0-.41-.27-1.05.1-1.35a2.09,2.09,0,0,0,.86-1c-.06.77.43,1.38.43,2.12a1.69,1.69,0,0,0,.23-1.1,4.6,4.6,0,0,1,.91,2.8,3.83,3.83,0,0,0,.38-2.22c-.17-.6,0-1.22-.37-1.76s-1-.71-1.11-1.27a1.41,1.41,0,0,1,.41-1.13,4.46,4.46,0,0,0,.81,1.63,8.61,8.61,0,0,1,.74,1.08,2,2,0,0,0,.17-1.49c-.11-.28-.56-.76-.31-1.07.14.14.25.33.43.23a.52.52,0,0,0,.19-.39,3.91,3.91,0,0,0,.62,1.22,4.28,4.28,0,0,0,.49-1.09v-.06a9.61,9.61,0,0,0,1-1.54,1.23,1.23,0,0,1,.26.54c-.53.11-.7.61-.81,1.11-.08.33-.41.85-.37,1.17a2.31,2.31,0,0,1,1-.48,2.42,2.42,0,0,1-.9,1.35c-.4.32-.85.24-1.21.63a3.05,3.05,0,0,0-.76,1.13c.35-.09.83-.25,1.16-.05a2.18,2.18,0,0,0-1.22,2.05c.22-.12.29-.42.51-.53a4.42,4.42,0,0,0,0,1.95c.42-.56.56-1.22,1.16-1.7a3.5,3.5,0,0,0,1.07-1.24,2.07,2.07,0,0,1,.79,1.35,1.93,1.93,0,0,0,.34-1.06c-.19-1.33-1.36-1.94-.06-3.2.35-.34.2-1.17.29-1.34.12.22.11,1.56.39,1.48a1.45,1.45,0,0,1,0,.8,4.76,4.76,0,0,0-.14,2.52,4.37,4.37,0,0,1,.52,2.21c.68-.82.38-2,.49-2.28.31.08.33.33.5.53,0-.42,0-.85,0-1.27s.23-.75.28-1.14-.64-1.28-.48-2.05a2.45,2.45,0,0,1,.91.66c0-.29,0-.65,0-1l0,0,0-.05a1,1,0,0,0,0-.17,4.13,4.13,0,0,1,.37-1,3,3,0,0,0,.15-.91c.23.09.29.33.46.48a4.05,4.05,0,0,0,.4-1.12c0-.25-.27-.74,0-.86.23.14.36.36.57.49.19-.38.18-.86.52-1.15a3,3,0,0,0,1.05-1c-.09.47-.3,1,.15,1.3,0,0,0,.06,0,.08-.18.39-1.35.67-1.64,1.78.53,0,1.22-.51,1.77-.23-.23.43-1.22,1-1,2.12.21-.15,1-1,1.33-.65.62.7-.88,1.26-.84,2.64a3.56,3.56,0,0,1-.5,2.28c1.29-.74,2-2.5,2.47-3.8,1.22.15.09,2.52.26,3.27a7.9,7.9,0,0,1,1.29-1,8,8,0,0,0-.84,3.37,11.62,11.62,0,0,0,1.55-1.35h.33a2.41,2.41,0,0,1-.14,1.24,1.43,1.43,0,0,0-1.24.66c.34,0,.68,0,1,0a20.48,20.48,0,0,1-1.08,2.27,8.62,8.62,0,0,0,2.77-2.19,0,0,0,0,1,0,0,5.8,5.8,0,0,1,1.12.25c-1.45,1.63-3.69,2.54-4.6,4.8,1.64-1,4.09-1.76,5-3.55a18,18,0,0,0,.74,4.41c1.6-2.51-.13-5.07,1-6,.72,1,.76,3.43,1.2,4.57,1.2-2.87-.37-3.52.41-5.93a3.48,3.48,0,0,1,.72,1.15,3.69,3.69,0,0,0,.15.75,1.16,1.16,0,0,0,0-.18,17.77,17.77,0,0,1,.35,3.41c-.75.84-1.39,2-2,2.74-.83-.22-1.51-.2-1.79.48a4.11,4.11,0,0,1,.8.49c-1.14.62-2.75-.07-3.67.7.45.51,2.32.68,1.69,1.63-.52.79-1.59,0-2.15-.26a2.09,2.09,0,0,0-1.17-.64c1.46-.39,1.94-1.33,2.61-1.66a4.59,4.59,0,0,1-2.55-1.35c-1.19-1-2-.47-3.14.06a5.33,5.33,0,0,0-.37-1.72,5.87,5.87,0,0,0-1.83,1.29c-1.09-.86,0-3.19-.91-4.07a4.26,4.26,0,0,0-1,2.3c-1.6-.49-1.84,2.15-2.53,3.14-.15-.54-.41-1.54-1-1.75-1-.36-.55.72-1.27.69-1.16,0-1.39,1.76-1.45,2.37h0c-.41-.69-.59-.79-.69-.62-.54-1.82-1.74-2.42-3.55-2.65.32-1.15,2.2-1.09,2.86-1.87-1.19.25-3.5-.46-4.25.84-.25.44,0,1,.09,1.57-.29.35-.57.73-.76,1-.21-.14-.42-.34-.71-.18-.08,0-.11.17-.12.35-.61-.45-.48-1.14-.89-1.89-.53-.95-1.18-.66-1.87-.92-1.41-.53-2.84-2.72-4.42-2.59-.71.06-1.51.87-2.22,1.09.51.73,1.72.94,1.7,2-.89,0-1.55,1-2.5,1.25-2.43.72-5.9.35-7.19,3.22,1.73-.34,2,.65.86,1.72-.89.83-2.56,1.77-2.54,3.14.36-.14.81-.11,1.16-.37.32,1.86-1.86,3.19-1.62,5.1,1.19-.28,1.83-1.49,3.25-1.41-.06.2.05.62,0,.82,1.08.41,2.46-1.42,3.47-.94.67.33.32.83-.26,1.31a3.4,3.4,0,0,0-.57.23,4.32,4.32,0,0,0-1.87,2.13c-.46-.12-.88-.25-1.21-.32-1.81-.38-3.28,1-4.26,2.32a4.27,4.27,0,0,1,2,.11c.15,1.12-2.57,2.78-3.2,3.75-.84,1.32-.79,3.28-.82,4.76,1.18-.64,2.28-2,3.56-2.41a6.65,6.65,0,0,0,.18,3.94c.76-.17,1.22-.95,1.91-1.13,0,.6-.31,1.19-.32,1.79.13,0,.85-.28,1-.27.13.82-.09,2.63.91,4,0-1,1.62-3.46,2.71-3.64,1.59-.26.22,1.84.71,3,1,0,2-1.64,3-1.59,1.23.06.13,4.51.73,3.91,1.06-1.05,1.86-1.52,2.19-2.25,1.54-3.32,2-.17,2-.17s2.32-.56,2.43-5.46a2.44,2.44,0,0,0-.05-.62l.41.29a1.15,1.15,0,0,0-.63-1,2.64,2.64,0,0,1-.3-1.09,4.63,4.63,0,0,1,1.11.56,1.83,1.83,0,0,0-1-1,3.86,3.86,0,0,1,1.4-1.36,7.33,7.33,0,0,0,1.2-2.07l.24.08c-.05-.1-.09-.2-.13-.3.27-.47.56-.82.88-.77.53.08,1.14,2.67,1.14,2.67a4.46,4.46,0,0,0,1.23-3.3c-.13-.9.24-.61,1.08-1.24a3.89,3.89,0,0,0,1.38-1.91.86.86,0,0,0,.14.13,5,5,0,0,1,.68.61c-.09.49-.19,1-.24,1.5a2.12,2.12,0,0,0-1,2.53c1.14.15,2-.74,3.09-.67h0a2.3,2.3,0,0,0,.41.81l0,.05a.61.61,0,0,0,.05.45c-.17.56-1,1.18-.74,2,.72-.43,1.49-1.17,2.26-1.68.23,1.53-.05,2.85.52,4.43.34-.38.72-1,1-1.33,0,.08.29.66.31.74,2.35-2.09,1-3.58,1.91-4.41a13.14,13.14,0,0,1,1.64,2.52c.13-.37.26-.76.36-1.16a1.25,1.25,0,0,0,.53.1c-.12,2-4.14,3.58-3.65,5.44-1.3.25-2.39-.55-3.65-.11a9.61,9.61,0,0,0-2.51,2c-1.53,1.78-2.71,4.62-2.42,5.55,1.64-.6,3.05-2.94,4.43-1.56,1,1,2.37-.93,3.64-1.14.34,1.4-.56,2.58-.68,3.87a3.85,3.85,0,0,0-2.15.21,3,3,0,0,0,.44.46c-.19,0-.39.09-.68.15-.74.17-1.85,0-2.41.58.74.18,2.06.06,2.92.3-2.65.84-9.45,2.91-8.37,4.52.52.77,2.14.82,2.07,2.17,0,0,0-.09,0-.13a1.29,1.29,0,0,0-.07.71,8.76,8.76,0,0,1-1.53,2.55c.6.46,1.64,0,2.5-.33a3.17,3.17,0,0,1,.29.87,6.1,6.1,0,0,1-.27,2.36l-.22-.24c-1-.95-.94-.43-.87.32-.38,0-.73,0-1,0a2.59,2.59,0,0,1-.09-.4c-.08-.6,0-1.81-.72-2,0,.22-.13.41-.14.61a3.37,3.37,0,0,0-1.7-1.29,3.86,3.86,0,0,0,.56,2.34c-.48-.3-2-2.94-2.5-2.79s-.06,1-.87,1-.92-1.47-1.71-1.67c-1.39-.36-2.46,1.7-3.43,2.35,1,.07,2.2-1.26,3.21-.7-1.06,1.39-1.46,2.61-.59,4.19a10.65,10.65,0,0,0-2.76.86,5.16,5.16,0,0,0,1.75,1.22,2.09,2.09,0,0,0-.07.88c-2.11.54-5.19-.19-6.72,1.35.18.05,3,0,3.21,0-2.55.39-3.76,2.82-4,3.21,1.81.68,4.67-2.37,6.44-1.73-.77,1.25-2.61,1.81-3.64,3a4.44,4.44,0,0,0-1.13,3.78,4.72,4.72,0,0,1,1.93-1.93c0,.87-.39,3.35,1,2.83.92-.33,1.46-3.26,2.49-4,.61.85.06,1.58,1.2,1.22.73-.23,1.1-1.65,2-1.55l.13,0a1.37,1.37,0,0,0-.32.85l.86-.55c.7.84-.75,3.06-.65,3.82.8,0,1.4-.74,1.95-1.4a5,5,0,0,0,.82.86c-.31.94-1,2-1.1,2.6-.33,1.31,0,2.6-.4,3.93-.43,1.64-1.17,2.25-2.3,3.48-1.48,1.61-1.13,2.8-1.81,4.64,1.52-1.05,5.52-5.55,4.1-1-.6,1.94-1.73,6.49-.29,5.15,3-2.76,1.8,2,2,3.87.31,2.87,1.78.69,2.67,2.32.81,1.45,1,3.27,1.82,4.65,2.08-1.43.56-7.3,2.82-7.32,2,0,1.23,4.51,3.64,4.31.18-1.49,1.89-.59,2.52.05,1.83-1.69-1.36-3.64,0-5.46.89.62,1.77,1.1,2.63,1.77.22-1.34-.41-2.73-.6-4a1.81,1.81,0,0,1,1.59,1c1.46-1.37-.15-5.5,3.18-5.28-.11,1.13-.81,2-.61,3.27.43,0,.47.24.94,0-.13.77-2.19,2.71-.33,2.67-.14,1.23-1.5,2.2-1.77,3.58a6,6,0,0,0,.5,4.16c.57-2.56,2-4.15,3-6.43,1.07.77.17,3.78,2.43,3.29.06-1.18-.24-2.69.23-3.78.28.34.78.42,1.1.63-.17-2.75,2-1.37,3-4,.92,1.81-.3,3.73.56,5.46,1.58-1.18,1.88,2.31,2.77,3.17a18.51,18.51,0,0,1-.1-3.8,12.21,12.21,0,0,1,.93,1,8.44,8.44,0,0,0,.22-2.3c2.09.85.85,4.65,2.45,4.95.19-1.39-.45-2.73-.28-4.11,1.45-.12,1.94,2.69,5.12,2.41-.63-2.71-1.62-1.7-2.66-2.76-.76-.78-1-2-1.62-2.85a51.4,51.4,0,0,0-4.71-5.3c2.2-3.6,3.7,2.37,6.67,1.17,1.37,1.65.75,4.29,2.62,5.58,1.07-2.2-.86-4.94-2.11-6.56,1.51-.26,2.68,1.76,3.84,2.18.22-2.16-2.59-3.63-3.34-4.34.24-.08.53-.32.67-.37-1.15-2.49-5.2-2.47-6.15-2.68a11.79,11.79,0,0,1,2.45-.5c-.22-1.14-2.73-1.33-4.05-1.56.27-.3.52-.57.75-.59.78-.07.71,1.31,2,.64.81-.42,1-1.91,1.49-2.59a10.33,10.33,0,0,1,2-1.65c1.63-1.38,1.4-2.95,3.75-2.06.48-1.1,0-2.19,0-3.31,0-1.33.83-2.4,1-3.63h.45a41.76,41.76,0,0,0,1.19,4c.64,1,2.23,2.88,3.47,3.06.24-1.1.44-2.18.72-3.28,1,0,1.22,1.71,1.32,2.61,3,0,1.89-4.95,1.33-6.44,1,.34.64,2.3,2.12,2.28a7.82,7.82,0,0,0-.35-2.8c-.33-1-3.09-2.66-2.58-3.77.25-.56,1.06,0,1.48-.28.57-.42.53-1.22,1.26-1.56,1.77-.82,1.26.88,2.68,1.1.43-1.22-.41-2.2-.14-3.3.38-1.6,1.85-1.27,2.8-.21.36.41.16,1,.51,1.37.69.69,1.66.61,2.35,1.16,1,.78.92,3,2.63,2.44.07-.9-.88-3.49-.48-4.1.6-.92,1.41.3,2.13.54,1,.34,1.24,0,2.2.62,2.13,1.45.24,3.6-.79,5a4.56,4.56,0,0,0-.81,3.52c.71-.52,2.94-2.82,2.81-.34a7.37,7.37,0,0,1,2-2.13c0,.32-1.47,5.28-1.18,5.12.83-.47,1.19-1.62,2.14-1.66-.38,0-1,3.56-.76,4,1.15,2.19,2.19-1.07,2.39-2.11,2.4.66,3.38,2.39,4.49,4.45a6.57,6.57,0,0,0-1.56-4.83c-.9-1.08-2.36-2.47-1.44-4a4.61,4.61,0,0,1,1,.59h0c.37.28.7.6,1,.9-.13.41-.08.76-.19,1a5.28,5.28,0,0,1,.76-.51,3.44,3.44,0,0,0,1.56.66c.17,1.17-.93,2.42-.14,3.4a3,3,0,0,1,2.64-2.07c-.18,1.36-.58,3-.19,4.37.28,1,2.45,2.76,2.43,3.56,0-1.25,1.29-.77,1.92-.36,1.45.95,1.95,3.13,2.85,4.4a23.28,23.28,0,0,0,.85-3.66H769c.35,1,2.1,4,3.16,3.93a4.29,4.29,0,0,1,.05-2.11c1.91-1.59,4.18,2.47,5.95,2.44-.74,0-1.77-5.58-2.52-6.34-1-1-4.22-1.5-3.32-3.59.4-.93,4.06,2.65,4.43,2.91,1.43,1,3.55,1.18,5.23,1.37-.2-1.18-1.55-1.86-1.79-3.1,1.07,0,1.92,1.07,2.77,1.61-.07-1.11-1.16-2.47-2-3.5,0-.22,0-.44-.08-.66,2.14.09,2.09,2.12,3.95,2.82-.94-1.24-.91-2.9-1.49-4.3-.09-.22-2.5-3.33-2.62-2.68a2.26,2.26,0,0,0,0-.45c.84-.05,8.1,1.42,8.1,2.12,0-1.74-2-1.84-2.61-3.13a12.42,12.42,0,0,0,6-.31c-1.72-.1-3.1-1.72-4.62-2.4a10.35,10.35,0,0,0-4-.7c.53-1-1.11-2.33-2-2.05,1.31-.4,3,0,4.19-.5s1.84-1.6,3.33-1.87a3,3,0,0,0,1.59,1s.22-3.88,2.49-.06c.5.83,1.53,1.31,2.94,2.44.8.65-1.09-4.59.39-4.82,1.18-.18,2.62,1.66,3.79,1.54.45-1.45-1.47-3.81.48-3.7,1.34.07,3.57,2.84,3.74,4,1-1.84.53-4,.58-5,.16,0,1.07.24,1.23.2-.1-.72-.53-1.39-.62-2.11a4.34,4.34,0,0,1,1.47.74,6.75,6.75,0,0,0-.67,3c1.59-1.23,2.06-4.24,2.57-4.07s1,3.7-.38,5.74c1.29-.87,2.59-2.93,2.52-4-.06-.9-.91-1.23-1-1.89a1.5,1.5,0,0,0,2.19.21C811.77,404.83,809.36,405.2,809.27,404.1Zm-91.18-61.81c0-1.37-1.25-2.48-1.1-4.05l.31.07c.22.28.45.55.64.77a2.19,2.19,0,0,0-.05-.68,7.33,7.33,0,0,0,2.36-.16,6,6,0,0,1,.82,2.16c-.3.47-.59.33-1.08.49A4.17,4.17,0,0,0,718.09,342.29Zm-20,5.24c-.42-.24-.87-.23-.69-.8,0-.1.16-.56.24-1a4.23,4.23,0,0,0,.32-.51,3.52,3.52,0,0,1,1,1.75,1.93,1.93,0,0,0,.25-1.07,3.11,3.11,0,0,1,.06,1.09,3,3,0,0,1-.67,1A2.15,2.15,0,0,0,698.09,347.53Zm-6.79-2.64a3.26,3.26,0,0,1,.91,1.76,1,1,0,0,1-.1.62,1.69,1.69,0,0,0-.53-.94l-.26-.22a.36.36,0,0,0,0-.11A1.64,1.64,0,0,0,691.3,344.89Zm-1.46-4a1.93,1.93,0,0,1,.16-1.39,1.74,1.74,0,0,0-.12-1.29c.43.61,1,1.15,1.37,1.63a10.35,10.35,0,0,1-.33-1.73.92.92,0,0,0,.54-1.2c.49.13.76.41.64.95-.06.28-.65,1-.57,1.6.17-.05.31-.3.48-.3.2.68-.29,1.16.18,1.82a4.46,4.46,0,0,0,.33.43,4.51,4.51,0,0,0-.57-.31A2.14,2.14,0,0,0,689.84,340.9Zm-2-30.6c-.12-.57-.38-1.19-.52-1.78.06-.14.13-.29.2-.43a3.23,3.23,0,0,1,.62,1.11,4.54,4.54,0,0,0,.38.77A2.14,2.14,0,0,0,687.81,310.3Zm.08-21.76a3.68,3.68,0,0,0,0,.49l-.53.6a3.23,3.23,0,0,1,.48-1.08Zm27.17-24.4.28-.06a2.58,2.58,0,0,0,.48.93,1.34,1.34,0,0,0,0,.66c.7-.15,1.88-1.53,2.9-2A9.33,9.33,0,0,1,719,265a1.39,1.39,0,0,0-.56-.54,2.53,2.53,0,0,0-.85.84,1.09,1.09,0,0,0-.85.5.83.83,0,0,0-.07.13,2.82,2.82,0,0,0-.39.39.84.84,0,0,1,.29-.08c-.11.45,0,.87-.18,1a.73.73,0,0,1-.22.09c-.77-1-1.44-1.86-2.81-2A4.76,4.76,0,0,1,715.06,264.14Zm2.49-3.92c.37-.11.41-.67.5-1,.08.06.47.85,1,.81,1.29-.1.58.53,1,.65a1.59,1.59,0,0,0-1,.57,4.18,4.18,0,0,0-2.42-.12C716.58,260.8,716.71,260.45,717.55,260.22Zm3.88-.94c.15-.12.7-.66,1.15-.63a3.53,3.53,0,0,1-.4.83A5.34,5.34,0,0,1,721.43,259.28Zm-.94-5a2.21,2.21,0,0,1-.64-1.63,1.52,1.52,0,0,1,.44,0,3,3,0,0,0,.58,1.85c.16-.29.11-.85.33-1.1,0,.07.09.14.15.21a4.22,4.22,0,0,0,.23,1,7.66,7.66,0,0,0-1,.85C720.68,255,720.79,254.62,720.49,254.25Zm5.16-4.16a5.07,5.07,0,0,1,.68.46,3.07,3.07,0,0,0-.75.33c.08.51.51.53,1,1a2.54,2.54,0,0,0,0,.29l-.43-.14a2.46,2.46,0,0,0-.47-1c-.19.27-.35.49-.48.71a4.38,4.38,0,0,0-1.58-.06,2,2,0,0,0,0-.24l.25.05a1.22,1.22,0,0,0-.49-1,8.89,8.89,0,0,1-.29-1.09c.93-.26,2.68,1.41,2.67,1.41S725.65,250.14,725.65,250.09Zm18.37,14c.24.65-.4,1.1-.38,1.77-.54.71-1,1.59-1.65,2.34,0-.31,0-.62.07-.91a5.05,5.05,0,0,0-1.14.63,1.62,1.62,0,0,0,0-.19,4.88,4.88,0,0,0,1.44-2.93,7.05,7.05,0,0,0-.94.95,2.83,2.83,0,0,1-.66-1.11l.11-.21.15,0a1.08,1.08,0,0,0,0-.37,2.43,2.43,0,0,0,.14-.48,2.9,2.9,0,0,1,.88.67,2.62,2.62,0,0,0-.78-1.46,1.85,1.85,0,0,0,0-.24.69.69,0,0,1-.13.11c-.19-.2-.39-.41-.57-.62,0-.08,0-.16-.05-.23l.31,0c.45.63,1.07,1.71,1.37,1.7.06-.54.2-.78.38-.84l.19.11a4,4,0,0,0,.47.21A5.79,5.79,0,0,1,744,264.08Zm6.55,25.36a1.75,1.75,0,0,0,.1.65c.19.36.64.48.82.83a3.05,3.05,0,0,1,.17,1.17,3,3,0,0,0-1.83,0,2.56,2.56,0,0,0-.65-2.37c.25-.1.53-.32.81-.43Zm-1,2.75c-.43.18-.74.4-1,.49s-.73.2-1.07.32a5.22,5.22,0,0,1,1.51-1.61A1,1,0,0,0,749.6,292.19Zm-.86-2.6a4.28,4.28,0,0,0,.1-.73,4.93,4.93,0,0,0,.76.32C749.3,289.34,749,289.44,748.74,289.59Zm-.56.29a4.74,4.74,0,0,0-1.21-.24l-.06-.15a3.42,3.42,0,0,0,.9-1.82h0a1.6,1.6,0,0,0,.44.77,1.47,1.47,0,0,0-.88.49C747.72,289.08,748.36,289.41,748.18,289.88ZM744,294.05a4,4,0,0,1-.34-.73c-.94,1.44,1.14,3.89,1,5.52a2.41,2.41,0,0,1-.15.63l-.63-1.15a4.89,4.89,0,0,0-.58,1.1c-1.29-3.22-2.19-1.16-1.92,1.08-.25-.17-.52-.33-.81-.49.46-.72-.31-1.94-.81-2.41a8.36,8.36,0,0,1-1-1.49,10.11,10.11,0,0,1,1,.45c0-.13.32-.8-1.46-1.83.4,0,1.29.76,1.83.64,0,0,.07-.52-2.35-1.26.3-.11,2.44.6,2.92.06a6.56,6.56,0,0,0-2.75-1.17c.39-.34,1-.45.89-.77,0-.15-1.16-.12-1.6.1.27-.39-.68-.4.36-1.16.39-.28.18-1.14.2-1.24.3.22.69.62,1,.46,1.37-.64,1.33.38,1.45.63a3.74,3.74,0,0,0,.9,1.25c.14-.21,0-.54.15-.74a4.89,4.89,0,0,0,1.93,1.55c0-1.82-1.15-1.9-1.26-2.49,1-.73,1.3.68,2.24.63a1.3,1.3,0,0,1,.51.11c0,.2-.06.41-.11.64S743.84,293.82,744,294.05ZM799,368.71a3.76,3.76,0,0,0-1.54,1.7c-.13-.51.1-.75.11-1.18,0-.61.53-.79.55-.88a.41.41,0,0,0-.08-.27,3.88,3.88,0,0,0,.73-.24A1.28,1.28,0,0,1,799,368.71Zm-1,7.14c-.36,0-.72-.07-1.09-.09a10.29,10.29,0,0,0,.8-.85c.28-.31.27-.86.63-1.09C798.71,375,798.45,375.42,798,375.85Zm.66,15.91a2.54,2.54,0,0,1,1.24,1.39,1.28,1.28,0,0,0,.15.25,5.78,5.78,0,0,1-.7.08,7.35,7.35,0,0,0-.79-1.74Zm-62.6-6.43a1.32,1.32,0,0,0-1.06-1.5,4.3,4.3,0,0,1-.86-.22c0-.32,0-.64,0-.94a5,5,0,0,1,.64-.89c.24,1.19,1.74,1,2.42,1.53a2.28,2.28,0,0,0-.87-1.86,1.19,1.19,0,0,1,0-1.71.46.46,0,0,1,.07.07c.26,1.27.66,2.89,1.9,2.48a3.47,3.47,0,0,0,1.75-2,1.54,1.54,0,0,0,.37.23c.46.22-.29,1-.51,1.3a3.18,3.18,0,0,0,0,3.56c.12-.38.18-1.08.52-1.38a2.84,2.84,0,0,1-.25,1.95l-.57,0a16.4,16.4,0,0,0-3.56.66A7.85,7.85,0,0,1,736.08,385.33ZM689,307.66c0-.05,0-.09-.07-.13a5.49,5.49,0,0,0-.65-.78,1.39,1.39,0,0,1,.36-.29,1.17,1.17,0,0,0,.43.4,2.49,2.49,0,0,1-.21-.49l.13,0a.25.25,0,0,0,0,.07l0-.08h.12A1.9,1.9,0,0,1,689,307.66Zm30.57-42.45a1.72,1.72,0,0,1,.12-1.59.59.59,0,0,1,.18.14.3.3,0,0,1,.08.16,1.53,1.53,0,0,0-.07.36l.1-.2c0,.57-.23,1.57.32,1.77s.94-.61,1.21-1.15a2.31,2.31,0,0,1,.07,1,1.26,1.26,0,0,0,.78,1.12,15.62,15.62,0,0,1-.06-1.93,2.93,2.93,0,0,1,.12-.28,1.39,1.39,0,0,1,.64.77c.15.36.36.41.63.63-.08-.28,0-.57-.11-.85s-.61-.82-.39-1,1,.15,1,.34a1,1,0,0,0-.58-1.07l-.43-.21a3.56,3.56,0,0,1,.67-.8c.09.41,0,.9.64,1,0-.24.1-.23.2-.13a4.7,4.7,0,0,0,1.22,2.92c-.52.06-1,.11-1.55.18a1.43,1.43,0,0,0-1.17.81,1.1,1.1,0,0,1-1,.6,1.22,1.22,0,0,0-.94.31h0a3.09,3.09,0,0,0,.05-1c-.09-.34-.36-.66-.26-1-.66.28-.51,1.39-.6,1.55s-.24.1-.5.25c-.3,0-.58,0-.84,0a7,7,0,0,0,.21-1.82A.7.7,0,0,0,719.6,265.21Zm21.77.64c-.11.12-.22.24-.32.37-.13-.68-.59-.66-1.11-.23.16-.23.33-.46.5-.72A2.39,2.39,0,0,0,741.37,265.85Zm5.29,17.9a2,2,0,0,1-.3-.11,1.91,1.91,0,0,0,.18-1.32l.27-.2a1.78,1.78,0,0,1,.7.35,4.29,4.29,0,0,0,0,1.23l-.17.05c-.11-.41-.19-.68-.67-.73A2,2,0,0,1,746.66,283.75Zm-5.22-3a4.82,4.82,0,0,0-1.65-.59c.43-.24.85-.5,1.26-.74A7.9,7.9,0,0,0,741.44,280.71Zm-10.3,11.13a.89.89,0,0,1-.25.79,11.08,11.08,0,0,1-.78-1.1A2.81,2.81,0,0,0,731.14,291.84Zm35.07,78.67c1-.16,2.18-.73,2.67.61a4.81,4.81,0,0,1,1.18.39,14.39,14.39,0,0,1,.82,2.45,9.2,9.2,0,0,1,.56-1.47,6.67,6.67,0,0,1,.93,1.12c0,.31,0,.63,0,.95a1.14,1.14,0,0,0,.35-.47,13,13,0,0,1,1,2.2,3.19,3.19,0,0,0,.34-1.76c.29-.14.57-.28.82-.42a4.66,4.66,0,0,0,1,1c-.08-2.13.43-2.15,1.21-1.48a2.15,2.15,0,0,1-.08,1.17,5.43,5.43,0,0,0,.59-.68,10.14,10.14,0,0,0,2.81,2.4c0-.61-.41-2.48-.44-3.73.52-.27,1.08-.54,1.62-.83a3.6,3.6,0,0,0,1.52.5,6.53,6.53,0,0,0,.13-1.14,5.37,5.37,0,0,0,.33-.62l.06-.21a4,4,0,0,0,.4-.52l.05,0,.15.05a19.75,19.75,0,0,0,.36,2.68c-.3.12-.74.17-1,.24a3.16,3.16,0,0,0-2.29,2.72c.33-.22.83-.71,1.29-.72-.3.84-1.36,1.26-2.19,1.7a2.27,2.27,0,0,0-.69.55,6.81,6.81,0,0,0-1.8-1.46,9,9,0,0,1-.81,2.41,1.35,1.35,0,0,0-.6-.6,2.35,2.35,0,0,0-.34-.55,2.47,2.47,0,0,0-.18.62,2.7,2.7,0,0,0-.8,1.29,7.66,7.66,0,0,0-.88-1.67c-.46.69,0,1.7.57,2.65-.06.28-.12.54-.16.8a3.34,3.34,0,0,0-.89-.59c-.07-.16-.16-.22-.28-.13l0,0a.75.75,0,0,0-.12.21,5.13,5.13,0,0,0-.41.76c-.12-.63-.6-3-2.06-2.76-.87.12-.47-1.23-1.62-.67-.58.28-.8,1.17-.93,1.85a7.08,7.08,0,0,0-.7-.76l-.12-.11a5,5,0,0,0-1.58-2.19c0-1.38,1.39-1.45,1.5-2.48S766,371.82,766.21,370.51Zm11-22.56a3.58,3.58,0,0,0-.41.35,3.27,3.27,0,0,0-1.25-.12c.77-1,1.59-2.06,2.64-2A2,2,0,0,1,777.22,348Zm3.12,3.06a.47.47,0,0,1,0,.17c-.07.18-.11.46-.18.7,0,.08-.05.15-.07.22l-.78-.07c-.16-.64-.61-1.15-.48-1.41.72,0,.85-.53,1.09-1A2.65,2.65,0,0,0,780.34,351Zm17.31,16.61c-.21-.28-.11-.51.17-.71.13-.1.58-.24.79-.38a1.08,1.08,0,0,1,0,.18,1.57,1.57,0,0,0-.09.32,3.35,3.35,0,0,1-.63.85A2.73,2.73,0,0,1,797.65,367.62Zm.3-2.15c-.27.06-.67.08-1,.14a4,4,0,0,0,.41-.7C797.65,365,798,365.23,798,365.47Zm-1.22,10.28c-.67,0-1.34-.07-2-.13a1.62,1.62,0,0,1-.12-.91,3.73,3.73,0,0,1,1.34.74c0-.84,0-2.27-1-2.55a2.93,2.93,0,0,1-2.06-1.88c-.19-.36-.59-.91.12-.71.55.16,1,.38,1.61.51.26-.39-.43-1.06-.75-1.3-.48-.34-1.27-.58-1.18-1.18a1.48,1.48,0,0,1,.85-1,1.48,1.48,0,0,0,.48-.51,5.71,5.71,0,0,0,.88,1.05,1.6,1.6,0,0,0,0,2.15c.25-.31.31-.82.83-1,0,.28-.2.55-.11.85.21.65.91,1.07,1.18,1.66s0,1.21-.18,1.76A9.41,9.41,0,0,0,796.73,375.75Zm1,16.57c.34.36.68.79,1,1.15a3.64,3.64,0,0,1-1.53-.48,5.9,5.9,0,0,0-.76-.74,2.7,2.7,0,0,1,.55-.41A2.65,2.65,0,0,1,797.74,392.32ZM786.84,358a.74.74,0,0,1-.07.58,4.53,4.53,0,0,0-.54-.27,2.12,2.12,0,0,0,.09-.79A4.92,4.92,0,0,1,786.84,358Zm3.37,10.45a2.12,2.12,0,0,1-.68-.2.14.14,0,0,0,0-.07l.18-.37A1.81,1.81,0,0,0,790.21,368.45Zm2.06,3.22a16,16,0,0,1-2-.88,4.36,4.36,0,0,0,1.81-.64,9.26,9.26,0,0,1,.29,1.24A.87.87,0,0,1,792.27,371.67Zm-3.76-3.26c-.27,0-.66.15-1.09.27a5,5,0,0,1,0-.87.58.58,0,0,0,.19-.36,1.73,1.73,0,0,1,.6.13A4.91,4.91,0,0,1,788.51,368.41Zm-7.4-2.27,0,0-.31-.4a4.15,4.15,0,0,1,.4-.66l.09,0A3,3,0,0,0,781.11,366.14Zm5.5-2.15a7.25,7.25,0,0,0-.63-1.09,8.32,8.32,0,0,1,.84-.74s.31.47.32.66C787.16,363.29,786.75,363.68,786.61,364Zm-4.25,3.25a1.55,1.55,0,0,1,.06-.84,3.35,3.35,0,0,1,.7.22A2.34,2.34,0,0,0,782.36,367.24Zm3.64.88a3,3,0,0,1,.41.89l-.84.29A1.32,1.32,0,0,1,786,368.12Zm-.32,2.78a4,4,0,0,1,1.06-.35,1.85,1.85,0,0,1,0,.23c-.35.21-.72.41-1.09.6C785.69,371.22,785.68,371.06,785.68,370.9Zm6.54,3.94c.07-.41,0-.88.07-1a8.61,8.61,0,0,1,.28,1.21Zm-.93-6.56a2,2,0,0,1-.76.18,1.74,1.74,0,0,0,0-1,.51.51,0,0,0,.42-.09C791,367.65,791.5,368,791.29,368.28Zm-3.5-2.24-.68-.51a2.38,2.38,0,0,1,1.45.17C788.33,365.81,788.07,365.93,787.79,366Zm.31-1.57c-.19,0-.71.5-.81.49.15-.47.72-.72.82-.83C788.1,364.25,788.1,364.36,788.1,364.47ZM787,361.69c-.34.17-.79.69-1.2.69s-.24-.16-.41-.37-.35-.23-.46-.4l.46-.09.41-.07C786.29,361.52,786.85,361.43,787,361.69Zm-19.57,2a2.53,2.53,0,0,0-.45-.19,4.57,4.57,0,0,1,0-.58A2.37,2.37,0,0,1,767.46,363.68Zm17.34,10.46-.33.19a1.78,1.78,0,0,1-.29.12,2.11,2.11,0,0,1,.46-.65Zm11-7.56a1.37,1.37,0,0,1-.16.32,14.92,14.92,0,0,0-1-1.81h0c.35-.16.77-.48,1.19-.37.12,0,.12.17.26.24A1.41,1.41,0,0,0,795.84,366.58Zm-11.54-13.5c-.07.25-.08.53-.17.78a7.74,7.74,0,0,0-1-.78,4.25,4.25,0,0,1,2-.88C784.75,352.49,784.42,352.67,784.3,353.08Zm-6.5-2.74c-.21.56-.64.31-1.22.27a2.46,2.46,0,0,0-1.19.2c-.12-.34.05-.79.66-1.38a.63.63,0,0,0,0,.23,4.44,4.44,0,0,1,2.69-.87C778.44,348.78,777.87,350.16,777.8,350.34Zm-10.72,14.37c.28.08.57.18.85.28.13.34.25.68.38.95a9.58,9.58,0,0,0-1.25.41,5.14,5.14,0,0,0,1.53.1.38.38,0,0,0,.23.18l.09-.22.13,0c.43-.09.55-.41.89-.4a2.24,2.24,0,0,1,.45.08,5.64,5.64,0,0,1,.44.85c-.6.12-1.28.28-2.14.4l-1.86.26a17.11,17.11,0,0,0,.16-2.91Zm-32,15.09c.11.54-.41,1-.77,1.66a5.38,5.38,0,0,1,.66-1.95A.92.92,0,0,1,735.08,379.8Zm-32.45,30.88a5.66,5.66,0,0,0-3.63-.33,1,1,0,0,0-.94-.2,11.9,11.9,0,0,1-1.34.09,2.63,2.63,0,0,0-.73.25,3.25,3.25,0,0,1-.76-.26c.28-.2.7-.32,1-.53-.45-.26-.6,0-1.63-.17l-.12,0c-.38-1.09,2.21-2.41,4.32-3.17a.25.25,0,0,1,0,.07l.1-.09.75-.25-.15.23c.25,0,.45-.24.7-.24a4.47,4.47,0,0,0-.92,1.72c.63-.3,1.06-.82,1.81-1a4.22,4.22,0,0,0,1.3-.46l.4.45a2,2,0,0,1-.1,1,5,5,0,0,0,.61-.48l.14.09a1.33,1.33,0,0,0,.34.16,4.12,4.12,0,0,1-.54,2.1c1-.42,1.23-1.56,1.48-1.8.24.2.14.44.2.7a6.12,6.12,0,0,0,.31-.56,5.44,5.44,0,0,0,1.06.91c.19.25.15.58-.56,1.24a5.45,5.45,0,0,1-2,1.13C703.1,410.94,702.7,410.73,702.63,410.68Zm-5.91-106.92a1.5,1.5,0,0,1-.39-.45,1.7,1.7,0,0,0,.08-.44c.77.2.7.53.34.89Zm29.5-37.39v-.08a2.64,2.64,0,0,0,.35-.23l-.33.05c.22-.94,2,1.38,2.28,1.42.92.16.16-1.44,0-2,.47,0,.75.82,1.15,1.07a5.27,5.27,0,0,0,0-1,6.38,6.38,0,0,0-.15-3.62c.92-.46,1.24,1.71,1.72,2.16a5.83,5.83,0,0,1,.42-1.32,7,7,0,0,0,1,2.74,6.29,6.29,0,0,0,.45-1.9h.07a5.38,5.38,0,0,1-.53,2.37,9.72,9.72,0,0,0-2-1.58c.77,2.07,2.37,4.23-.7,3.87-1.24-.15-2.68-.66-3.92-.18a2.12,2.12,0,0,0,.27-.39,2.66,2.66,0,0,0-1.48.61c-.14.18-.15.45-.32.6s-.59.07-1,.19l-.18-.1.09-.24c.23-.28.57-.51.64-.75a2.11,2.11,0,0,1,.44-.9,6.28,6.28,0,0,1,1.63-.84ZM745.87,281l-.72-.91.6.19Zm-8.44-1.27-1-.06a8,8,0,0,1,1.14-2.1c.19.75.06,2.13.15,2.05a1.89,1.89,0,0,0,.48-2.54c.55.4.75.31,1,1a3.56,3.56,0,0,1,.18,1C738.72,279.27,738.08,279.53,737.43,279.73ZM736.33,296c0-.06,0-.13,0-.2.17.64-.19.84-.72.85-.13-.31-.43-.59-.39-.95a2.75,2.75,0,0,1,.59-1.56,1.44,1.44,0,0,0,.06.94C736.07,295.34,736.33,295.61,736.33,296Zm21.1,88.31.49-.13a12.66,12.66,0,0,1,1.57.79c-.28.26-.58.52-.88.77A3.92,3.92,0,0,0,757.43,384.27Zm-18.06-22.52s.36-.55.91-1.22h.11a1.64,1.64,0,0,1,1.24.44,3.06,3.06,0,0,0-.74-1.16,6.8,6.8,0,0,1,2-1.62.76.76,0,0,1,.11.14l-.06-.16a1.88,1.88,0,0,1,.74-.15c.06,1.22-.2,2.68-.13,4-.28.14-.55.28-.8.43-1,.61-1.1,1.9-1.82,2.38l-.16.08-.18,0a6.32,6.32,0,0,0-3.14-2.3v0c.54,0,1.08.08,1.42.06a1.67,1.67,0,0,0-1-1.05,12.49,12.49,0,0,1,1.16-1.23Zm22.41,24.39c0-.07-.07-.15-.11-.24a3.67,3.67,0,0,1,.53.09.27.27,0,0,0,.07.08,1.67,1.67,0,0,1-.23.6A2.37,2.37,0,0,0,761.78,386.14Zm-46,15.79a.56.56,0,0,0,0-.12l0-.07c.12-.19.4-.1.66,0-.2.18-.41.36-.6.55A.52.52,0,0,1,715.74,401.93Zm22.64-37.78a3.47,3.47,0,0,0-.86.06,4.05,4.05,0,0,0-1.78-.76.49.49,0,0,1,0-.12c.08-.5.54-.68,1.1-.73a2.92,2.92,0,0,0,.61.21c0-.06,0-.13,0-.19a6,6,0,0,1,1.73,1.94A2.37,2.37,0,0,0,738.38,364.15Zm11.54-7.45c1-.17,1.83.83,2.57,1.93l-.08-.05a2.49,2.49,0,0,0-2.09-.25A2.54,2.54,0,0,1,749.92,356.7ZM749,378.06l.14.19c-.18.73-.49,1.75,0,2.19-.65-.22-1.21-.4-1.37-1.1A6.37,6.37,0,0,1,749,378.06Zm8.86.24.19.13a6.87,6.87,0,0,1,.78.59,2.33,2.33,0,0,0-1.31,0,5.73,5.73,0,0,0,.3-.61S757.84,378.34,757.86,378.3Zm2,8.08c.14.39.6.75.65.89-.16,0-.62-.5-.94-.7Zm-8.27-26.12c-.26-.16-.48-.34-.75-.49a1.19,1.19,0,0,0,0-.32,3.17,3.17,0,0,1,2-.24l.31.5A10.1,10.1,0,0,0,751.63,360.26ZM730,296.54c0,.24.29-.46.66-1,.1.31.23.63.26.7.2.46-.17.49-.5.73s-.57.53-.53.82c.21-.16.49-.06.72-.14a1.62,1.62,0,0,0,.53-.44,1.43,1.43,0,0,1-.15.44l-.29,0s0,.15,0,.33a1.26,1.26,0,0,1-.68.27l-.37.05c-.25-.39-.12-1.64-1-2.76a2.46,2.46,0,0,0-.15-1.71,1.14,1.14,0,0,1,.32-.5,1.79,1.79,0,0,1,.47,1.6,2.39,2.39,0,0,0,.31,1.65,3.51,3.51,0,0,1,.4-1.14A8.06,8.06,0,0,0,730,296.54Zm-33.71,5.59a2.76,2.76,0,0,0-.19-.46,3,3,0,0,1,1-.22l0,.21A7.3,7.3,0,0,0,696.32,302.13Zm-2-.86,0,.06a5.66,5.66,0,0,0-.42-.43,1.87,1.87,0,0,1,.51-.5l.27.17c-.11.21-.22.43-.32.65l-.09-.05Zm43.22-40a12.46,12.46,0,0,1,.24,1.94c-.2-.36-.41-.72-.63-1.07A3.34,3.34,0,0,1,737.59,261.23Zm-1,2.42c.21.61.46,1.22.66,1.83a8.36,8.36,0,0,0-1.37.42l-.21-.13a7.08,7.08,0,0,0-.3-3.74l.66,0a15.89,15.89,0,0,1,.48,1.72S736.61,263.7,736.64,263.65Zm-16.13,16.6.29.31,0,.11a1.6,1.6,0,0,0,0,1.18,1,1,0,0,1-.41.37A6.47,6.47,0,0,0,720.51,280.25Zm-5.93,15.12-.37-.64a1,1,0,0,1,.78.1A1.52,1.52,0,0,0,714.58,295.37Zm14.71-34.85a1.24,1.24,0,0,1-.81.24,1.77,1.77,0,0,1-.15-.31l.1,0c.18-.07.31-.24.49-.32a2.31,2.31,0,0,1,.58.27Zm-15.22,33.56-.25.06-.07-.1c.19-.3.52-.13,1.28-.39a3.19,3.19,0,0,0,.52-.2q.16.19.36.39l0,0a1.17,1.17,0,0,0-.37.48A2,2,0,0,0,714.07,294.08Zm20.16-16.61a6.64,6.64,0,0,1,1.46-.8c.74-.26,1.33-.28,1.73.49a1.93,1.93,0,0,0-.71.71,1.77,1.77,0,0,0-1-.34c.11-.21.22-.42.33-.61a1.5,1.5,0,0,0-.75.58Zm-.34,0h-.07c.42-.92,1.39-1.12,2.43-1.09A5.1,5.1,0,0,0,733.89,277.44Zm-40,24.32a.24.24,0,0,1,0-.08c0-.06,0-.13,0-.2a3.64,3.64,0,0,1,.39.23,1.3,1.3,0,0,0,0,.34,1.32,1.32,0,0,0,.53,0,1,1,0,0,1,.25.32,2.52,2.52,0,0,0-.15-.34l.24-.05c.16.18.32.36.45.54a8.3,8.3,0,0,1,.28,1.09C695.07,303.15,694.25,302.77,693.87,301.76ZM719.34,300a3.09,3.09,0,0,1-.41-.56l.58-.17C719.46,299.52,719.41,299.76,719.34,300Zm21.1,78.33a2.19,2.19,0,0,1,.3.16c-.16.42-.33.84-.5,1.27v0A3.8,3.8,0,0,0,740.44,378.33Zm.76,3.47a5.27,5.27,0,0,0,2.16.64,9.54,9.54,0,0,1,1.64.22c-.2-.62-.33-1.17-1-1.45-.35-.14-1.21-.12-1.18-.63.25,0,.52.05.64-.21a.55.55,0,0,0-.11-.52,4.34,4.34,0,0,0,1.63.46,4.18,4.18,0,0,0-.35-1.41,5,5,0,0,0-1.28-1.2,1.45,1.45,0,0,1-.36-.43,4.66,4.66,0,0,1,.23-1.06c.19-.21.38-.42.54-.63.78-.51,1.1.35,1.42,1.14a1.44,1.44,0,0,0,0,1.8c.19.36.25,1.14.54,1.37a3.77,3.77,0,0,1,.66-1.35s0,.14.12.33c-.54.9-1.18,1.85-1.07,2.26s.39.39.76.08a2.46,2.46,0,0,0-.49,1.06,3.62,3.62,0,0,0,.1,1.71c.29-.41.68-1,1.2-1.16a2.58,2.58,0,0,0,.32,2.95c.14-.31,0-.64.12-.95a4.43,4.43,0,0,0,1.52,1.73,8.53,8.53,0,0,1-.11-2.59,4.45,4.45,0,0,0,.16-2.1,2.4,2.4,0,0,1,.76,0,22.63,22.63,0,0,0,.68,3.43c1-.47.43-2.93,1.6-3.45a17.31,17.31,0,0,0,2.24,5.12c1.19-.82,0-3.86-.7-4.84l-.12-.16c-.09-1.17-1.14-1.79-1.28-2.16.39-.22.61,0,1,0-.29-.41-.68-.74-1-1.16s-.35-.86-.6-1.25a.54.54,0,0,0-.26-.18c.24-.15.66-.11,1.25.17a2.85,2.85,0,0,1,.72.52,1.61,1.61,0,0,1,.25,1.06l.26-.52c.51.6,1,1.3,1.43,1.75.83-.75-.53-2.23-.87-3.3a1.79,1.79,0,0,0,0-.24,1,1,0,0,0-.05-.43.64.64,0,0,1,.19-.26c.61-.51.88.12,1.12.62a2.6,2.6,0,0,0,1.08,1.72,1.83,1.83,0,0,1,.52.88,3.08,3.08,0,0,0-.84.65,5.59,5.59,0,0,1-2.91,1.94c.85.32,1.55,1.39,3.36,1.68-.2.09-.4.17-.58.27a4.63,4.63,0,0,1-.87-.74,2,2,0,0,0,.41,1,1.16,1.16,0,0,0-.39.62,5.12,5.12,0,0,0,.87-.08,2,2,0,0,1,.28.33c-.26.15-.44,0-.7,0,.25.31.57.58.81.91s.33.67.55,1a.54.54,0,0,0,.2.14,2.1,2.1,0,0,0-.51,1.09,3.29,3.29,0,0,0,1.57-.56,1.51,1.51,0,0,1,.44.43,2.28,2.28,0,0,1-1.07.14c.4.41,1,1.09,1.55,1.15l0,0c-1,1.74.38,1.27,1.68,1.07.11.24.53.35.84.38a1,1,0,0,0,0,.39c-.71,0-1.49-.08-1.59-.07-1.79.16-2,1.55-2.14,3.26,0,.5,1.14-1.77,2.08-2,.39-.11,1.89-.25,2-.58a6.76,6.76,0,0,0-.51,2,2.82,2.82,0,0,0-.57,1.9c.21,1.64.54.89,1.8.51a13.47,13.47,0,0,1-.11,2.29c2.12-.49,1,1.67.8,2.72a5,5,0,0,0,.16,2.14,1.39,1.39,0,0,1-1.16-.36,2.1,2.1,0,0,1-1.8,0,6.44,6.44,0,0,1,.46-2.11,6.61,6.61,0,0,0-4.81,1.66,9.14,9.14,0,0,0-1.15,1.18c-1.29,1.56-2.11,2.11-4,2.11h-.13c.61-1.72-1.15-2.06-.74-3.5.18-.65,1.21-.09,1.22-1.15,0-.55-.92-1-1.22-1.62a0,0,0,0,0,0,0,2.39,2.39,0,0,1,.44.29c-.13-.14-.24-.28-.35-.41l.09-.14c1.22.52,2.68,3.49,4,2.06.94-1-.78-2-1.67-3.08l.1,0c-.09-.31-.2-.62-.32-.93,2.58-.09,5.17.54,7.69.45-.64-1.79-2-2.41-3.64-3.14-1.83-.8-1.53-1.31-2.5-2.7-.63-.9-3.85-2.69-4.82-2.63-1.25.08-3.12,2.08-3.66,3.16a18,18,0,0,1-2.39-.89,7.49,7.49,0,0,1,.27-1.8,1.49,1.49,0,0,0-.21-1.21,6.48,6.48,0,0,1,4.14-1.1,2.32,2.32,0,0,0-.83-1,3.19,3.19,0,0,0-1.23-1.9c-.66-.36-1-1.08-1.8-1.17s-1.57.28-2.19,0C741.26,383,741.15,382.26,741.2,381.8Zm2.22,9.53c-.27-.11-.55-.22-.83-.31a1.49,1.49,0,0,0,.36-.23A3.5,3.5,0,0,1,743.42,391.33Zm.39-6.23a5.72,5.72,0,0,1,2.35.81,6.56,6.56,0,0,0-1.93-.31A4.64,4.64,0,0,0,743.81,385.1Zm-1.52-.25a2.82,2.82,0,0,0,1.1.77c-.34,0-.67,0-1,.07A1.41,1.41,0,0,0,742.29,384.85Zm20.29-17.07c-1.93-.89-3.65-1.65-5.58-2.62-.74-.38-1.2-.62-1.91-1a3.58,3.58,0,0,0-1.86-.81,4.82,4.82,0,0,1,2-1.72,5.21,5.21,0,0,0,.54.2.84.84,0,0,0,0,.68c.09-.23.11-.46.18-.64a1.14,1.14,0,0,0,.9-.08,2.11,2.11,0,0,0,2.09.35c-.37-.78-1.54-.71-1.89-1.21a10.2,10.2,0,0,0,3,.56c.69.91.34,2.57.43,3.53.49-.41,1.87-3,2.42-3.31C763.08,362.87,762,366.29,762.58,367.78Zm-6.83-24.41c-1.12-.1-2.55-1-4.22-1.19.34-.91,1.6-.46,2.16-.33q0-.37,0-.66A8.86,8.86,0,0,1,755.75,343.37Zm-22.54-47c.17-.13.26-.33.43-.47.1,0,.1.17.08.32l-.22,0a1.91,1.91,0,0,1,.18.38.13.13,0,0,1,0,.06l0,.06a3.18,3.18,0,0,0-.43-.06,3.89,3.89,0,0,0,.41,1.36l0,.09c-.39-.16-.66.22-.93.37-.19-.63-.82-1-1-1.22.43-.29,1.06.06,1.5,0-.36-.93-1.44-1-1.55-1.36.39-.32.16-.73,0-1.13a2,2,0,0,0,.77.61v.46a1.94,1.94,0,0,0,.23-.33C733,295.75,733,296.12,733.21,296.41Zm7.13-17.56a2,2,0,0,1,.36-.53,2.75,2.75,0,0,1,.18.46A3.33,3.33,0,0,0,740.34,278.85Zm.26-2a1.06,1.06,0,0,1,.6-.21,4.47,4.47,0,0,0-2.22-.53,5.49,5.49,0,0,1-.81-.27,3.6,3.6,0,0,1-.7-1.25l.19-.05a3.72,3.72,0,0,0,2-.83l.11,0c.06,1,.77,1.33.86,2.12a1.62,1.62,0,0,0,.36-1.05c.39.68.66,1.58,1.06,2.48C741.51,277.19,740.9,277.44,740.6,276.87Zm4.17,5.52a3.71,3.71,0,0,0,1.12,1.07,2.62,2.62,0,0,0-1.42-.17C744.52,283,744.51,282.58,744.77,282.39Zm2.76,1.76a4.23,4.23,0,0,0,.4,1.11,1.17,1.17,0,0,1-.19.3c0-.28-.13-.56-.17-.78A1.51,1.51,0,0,1,747.53,284.15Zm-8.72-18.77a16.22,16.22,0,0,0,.19-2.76l.09,0a4.5,4.5,0,0,0,.64.9c0,.16.06.34.1.52C739.46,264.49,739.12,264.94,738.81,265.38Zm-48.55,32c.22,0,.85,0,1,.06s0,.12,0,.19l-1-.09S690.19,297.48,690.26,297.38Zm23.13,9.1c.35-.92.43-.28.88.75l-.88.28A1.58,1.58,0,0,1,713.39,306.48ZM719,308.7a2,2,0,0,1,.32.11,4.89,4.89,0,0,1-.41-.37c-.35-.93-1.21-2.8.59-1.53.75-1.13-.36-3.39,1.21-1.53,1,1.17.63-1.5.48-2.54,1.31-1,1.18-2.14,1.75-2.69.23.51-.09.85,0,1.46,0,.33.32.67.36,1s-.47,1.13,1,2.14a11.56,11.56,0,0,1,.42-1.61,3.86,3.86,0,0,1,.7,1c1-.9-.1,1.73,1.38,3.33a10.18,10.18,0,0,1,1.81-1.92,9.41,9.41,0,0,0,2,1.1,17.73,17.73,0,0,1-1-1.58c.62-.09,1.21.25,1.7,1.31a3.86,3.86,0,0,1,.15,1.09h0c-.11.18-.7,1.84-1,2.78-.11.13-.23.24-.33.34-.29-.81-.24-2-1-2.5a3.28,3.28,0,0,0-.79,2.59c-.11-.2-.28-.38-.39-.6l-.16.16a1.26,1.26,0,0,0-.42-.31,3.89,3.89,0,0,0-1,2.47c-.52-1.66-1.21-4.11-2.8-4-.57,1.16,0,2.52.3,3.65-.46-.13-.9-.29-1.32-.41a2.61,2.61,0,0,0-2-.42c-.19.06-.52.25-.72.19a3.28,3.28,0,0,1,1.17-1.31c-.42-.45-1.44-.21-1.86.11A2.87,2.87,0,0,0,719,308.7Zm4.61,7.42-.52.67a13.43,13.43,0,0,0-.94-1A10.77,10.77,0,0,1,723.64,316.12Zm-12.83,48.34h0a.87.87,0,0,1,.07-.17,3.42,3.42,0,0,1,1-1.51A2.2,2.2,0,0,1,710.81,364.46ZM792,363.33a2.18,2.18,0,0,0-1.14.31,1,1,0,0,1-.15-.31,1.28,1.28,0,0,1,0-.47,1,1,0,0,1,.79-.34c.29.06.53.48.78.82Zm-4.83-8.76a3.82,3.82,0,0,1,.47.35,2.86,2.86,0,0,1,.42,1.71,1.85,1.85,0,0,1-.34-.41v-.06C787.64,355.59,787.21,355.11,787.12,354.57Zm-13.3-6.33a2.31,2.31,0,0,1-.47-.08,4.66,4.66,0,0,1,.55-.54C773.87,347.83,773.84,348,773.82,348.24Zm-9.24,17.95c.17-.35-.07-.8.34-1.08a4.91,4.91,0,0,0,1.87,2.47c-.85.12-1.69.25-2.55.44s-.54.28-1,.06c.6-.92,1-3.27,1.34-4,0,.13.07.26.1.38A1.43,1.43,0,0,0,764.58,366.19Zm-19.72-66.07a3.49,3.49,0,0,0-.18-.31c.22-.41.34-1.35.66-1.63a.28.28,0,0,1,.13,0A4.16,4.16,0,0,0,744.86,300.12Zm-2.38-12.67c0-.53.73-.79,1.06-1.18-.49-.17-.58.14-1.63.15s-1.25.69-1.59.69-.46-.26-1,.05c.65-.57.4-.46.62-.69s.38-.21.58-.4a1.84,1.84,0,0,0-1.27.22,1.52,1.52,0,0,0-.83.94c-.19.4-1.13.65-1.32,1.73a2,2,0,0,0-.53-1.11c-.11.54-.42,1-.14,1.64a1.81,1.81,0,0,1,.27.71,1.18,1.18,0,0,0-.42.38A1.78,1.78,0,0,0,735,291a2.07,2.07,0,0,0-1.18,1.67c.13-.5,1-.49,1.31-.49a2.31,2.31,0,0,0-.55.77c-.56.82-.74.27-1.16-.19a5.85,5.85,0,0,0-1.67-2.33c-.43-.28-.68-.38-.82-.36-.56-.74-1.44-1.33-1.36-2.29,2.09-.06,2.28,2,4,2.54.18-1.36-2-2.76-2.08-4.24,1.27.51,2.49,1.48,3.9,1.84,0-.53-.48-.87-.93-1.21,1.5.1,2.26-.63,3-.73l-.27-.16h0a8.82,8.82,0,0,0-.8-.61,4.21,4.21,0,0,1-.69-.91,4.79,4.79,0,0,0,2.41,1.35,3.54,3.54,0,0,1-.82-1.32,5.38,5.38,0,0,0,.66.15,5.58,5.58,0,0,0-.73-.76.13.13,0,0,1,0-.06c2.41,1.2,4.3.25,5.17.08-.22-.18-2.67-1.23-3.87-1.74-.14-.13-.29-.25-.44-.37a12.45,12.45,0,0,1,3.42-.84,1.69,1.69,0,0,0,.4.54,5,5,0,0,0-.11-2.39l.24-.13-.28,0c-.09-.37-.2-.7-.27-1a5.18,5.18,0,0,1,1.29,2.33,7.78,7.78,0,0,0,.31,2.32,6.2,6.2,0,0,0,.71-2.33,2.72,2.72,0,0,1,.13,2,3,3,0,0,0,.07,1.36,1.79,1.79,0,0,0-.35.33c.45.14.64.48,1.13.49.33,0,.67-.1,1-.11a1.38,1.38,0,0,1,1.55.7,3.23,3.23,0,0,1,.26.84c-.44.35-1.06.28-1.55.49a1.15,1.15,0,0,0-.55.11,10.8,10.8,0,0,1-1.3.36C743.56,286.91,743.17,287.5,742.48,287.45Zm3.61.08h.37a2.7,2.7,0,0,0-.25.85.43.43,0,0,0,0,.16c-.53-.35-1-.21-1.24-.32a2.1,2.1,0,0,0-.87-.24S744.19,287.47,746.09,287.53Zm3.41-3.06a12,12,0,0,0,1-.78c-.22,0-.52,0-.81.05.19-.93.29-1.79.58-1.85a7,7,0,0,1,1.52,2.37,3.43,3.43,0,0,0-2.32.38A1.54,1.54,0,0,1,749.5,284.47Zm-4.14-32.05a3.41,3.41,0,0,1,.24-.64,1.8,1.8,0,0,1,.34.38l0-.06.11.24ZM744,251.33a2,2,0,0,1,.17.26,3.59,3.59,0,0,1,.3.8C743.9,252.3,743.63,252,744,251.33Zm-16.92-2.67a5.49,5.49,0,0,0,1.31.86,2.43,2.43,0,0,0,0,.66l0,0c-.69.43-.64-.58-1.25-.45h0c-.17-.28-.35-.56-.3-.73A.69.69,0,0,1,727.05,248.66Zm-16.35,7.79a3.45,3.45,0,0,0,0,.78,3,3,0,0,0-.76.18C710,256.86,710.22,256.05,710.7,256.45Zm2.11-.78c.06.07.11.15.16.22l-.23.11C712.77,255.89,712.79,255.78,712.81,255.67Zm.19-.48h0c.06.1.12.23.19.36a1.46,1.46,0,0,1-.13.25C712.91,255.55,712.87,255.41,713,255.19Zm9.8-2.23a1,1,0,0,0,.62.26l-.06-.29a1.76,1.76,0,0,0,.15-.44l.64.39a1.09,1.09,0,0,0,0,.26c-.57.29-1.2.61-1.83,1A4.09,4.09,0,0,1,722.8,253ZM669.33,301.7a4.19,4.19,0,0,1,1.88.79l0,.05a.54.54,0,0,0,0,.11c-1.59-.26-2,.06-2.17-.45C668.91,302.05,669.09,301.87,669.33,301.7Zm25,6.49c-.08-.14-.18-.27-.27-.4-.07-.31-.13-.61-.17-.9a1.91,1.91,0,0,1,.68.68.54.54,0,0,1,.07.13C694.52,307.86,694.41,308,694.3,308.19Zm0-1.37a.38.38,0,0,1,.22-.11,2.37,2.37,0,0,1,.47.2.9.9,0,0,1-.07.24.47.47,0,0,1,0,.1A1.62,1.62,0,0,1,694.28,306.82ZM714,311.28a1.59,1.59,0,0,0,.46-.21c.08-.06.4-.24.49-.17a1.66,1.66,0,0,0-1-1.17,1.08,1.08,0,0,0,0-.4,1.18,1.18,0,0,0,.36.09,3.7,3.7,0,0,0,1.16-.24l.38.35a1.55,1.55,0,0,0,0-.43.93.93,0,0,1,.44,0c.09-.23-.27-.51-.47-.61v0a1.26,1.26,0,0,1,.45-.25,11,11,0,0,1,.76.93c.1-.6.44-.45.81-.08-.52-.06-1.54.77-1.8,1-.64.63-1,1.42-1.85,1.79C714.18,311.72,714.1,311.5,714,311.28Zm4-2.07a14.11,14.11,0,0,1,.91,1.21c-.89.69-1.74.9-1.8.75C716.91,310.61,718,310.11,718,309.21Zm2.65,3.29a5.48,5.48,0,0,1,2.13,2.06c-.56.21-1.17.24-1.72.41-.42-.22-.79-.27-1,0-.08-.21,0-.5-.1-.73a3.26,3.26,0,0,0-1.62-1.84A11.14,11.14,0,0,1,720.63,312.5Zm-17.94,29.93c.19,0,.38-.1.56-.15a5.67,5.67,0,0,0-.12.62A1.93,1.93,0,0,1,702.69,342.43Zm1.36-2-.53-.3a2,2,0,0,1,.9-.41Zm-11.8-3.54a3.89,3.89,0,0,1,1,.2l0,0v0c.62.16,1.28.26,1.56-.36h0a1.75,1.75,0,0,0,.16.27c-.24-.8.22-2-.17-2.53a1.22,1.22,0,0,0,.12-.19c-.46-.07-.7-.38-1.18-.31l-.27.06c-.21,0-.41-.09-.58-.14,1.41-1.26,3.2-1.38,3.59-.31.32.86-1.24,2,.17,1.55.77-.24,1.15-1,2-.51-.81,1-2.33,1.86-1.62,3.44,1.62-.38,2.43-2.85,4.11-2.95a6.1,6.1,0,0,1-1.94,3.24,1.59,1.59,0,0,1-.06-.43c-.48.06-.7.52-.83,1a5.94,5.94,0,0,0-1.67,3c-.3-1.24,1.06-3.54-.92-1.94a3.57,3.57,0,0,0-.93,1.21c-.34-.94-1.6-2-2-2.77.68.68,1.9,1.23,2.63.08C694.2,337.85,692.38,338.57,692.25,336.86Zm-1.37.37a2.64,2.64,0,0,1,0-.4c.08-.12.17-.23.24-.35C691.39,336.69,691.1,337,690.88,337.23Zm2-2.25a2.89,2.89,0,0,0,.93,0,7.58,7.58,0,0,1,.92,1.57,4.66,4.66,0,0,0-1.6-.17A5,5,0,0,0,692.91,335Zm-1.26.58c0-.05.05-.09.07-.13a.65.65,0,0,0,.4.08,3,3,0,0,1-.11-.32,9,9,0,0,0,.63,1.24,2.27,2.27,0,0,1-1.33-.24A4.55,4.55,0,0,0,691.65,335.56Zm.81,4.26c-.14-.31-.32-1.2.12-1.33.34.58.31,1.27.73,1.85a2.78,2.78,0,0,0,1.38,1.08c-.18.37-.32.75-.45,1.1A13.14,13.14,0,0,1,692.46,339.82Zm6.84,5.71a1,1,0,0,0,0,.3,3.42,3.42,0,0,0-.1-.83,2.76,2.76,0,0,1-.08-.87,1.79,1.79,0,0,1,.61.26C700.16,344.78,699.46,345,699.3,345.53Zm.46-1.61a3.54,3.54,0,0,1-.62-.14,2,2,0,0,1,.36-.74,1.22,1.22,0,0,1,.48.61A2.88,2.88,0,0,0,699.76,343.92ZM713.64,341a.42.42,0,0,1,.4.26,3.58,3.58,0,0,0-.9,0A.67.67,0,0,1,713.64,341Zm14-.62c1.32-.17,3.39,4.72,3.66.65a3.1,3.1,0,0,1,2,2.29c1.08,0,1.06-1.11,1.58-1.2.79,1-.7,3.61-.44,5.27a.27.27,0,0,1-.07.08l.08,0a1.61,1.61,0,0,0,.32.73c.28-.22.58-.19.81-.32-.45,1.33-.08,3.41,1.49,3.44a5.76,5.76,0,0,0,.21-1.94c2.17-.75,2.67,2.17,5,2.24a5.45,5.45,0,0,1,.32-1.08,1.31,1.31,0,0,1,.08.89,4.94,4.94,0,0,1-2,2.7c-.37.12-.76.21-1.12.36-.8.33-1.39,1.1-2.26,1.16a.18.18,0,0,1-.07-.05c.13-.65,1.08-1.06,1.55-1.58-.63-.16-.78.25-2.17.38a2.64,2.64,0,0,0-.82.23,6.74,6.74,0,0,0-1-.46l.05,0-.25,0a6.51,6.51,0,0,0-.92-.21l.06-.24-.45.2a7.25,7.25,0,0,0-2.4.27,4,4,0,0,0,2.17-1.55c-.87.14-2.42,1-3.28.9.13-1,2.35-.88,3.34-2.79a13,13,0,0,0-3,1.13c.78-1.22.38-3,.4-4.4-1.07,1.38-.84,3.1-1.33,4.59a5.76,5.76,0,0,1-1.25-1.75,8.4,8.4,0,0,1,.54-2.57C729.71,345.2,727.6,341.85,727.63,340.41ZM729,357.84a2.6,2.6,0,0,1-.57.52c-.17.09-.41-.16-.6-.29a5.48,5.48,0,0,1,1.23-.37Zm-2.57,1.34a1.38,1.38,0,0,1-.52-.08,10.66,10.66,0,0,1,1.35-.78C727,358.7,727.14,359.15,726.43,359.18Zm-40.86,50.49a5.91,5.91,0,0,0,.38.69,2.62,2.62,0,0,1-1.2-.29A2.94,2.94,0,0,1,685.57,409.67Zm48.66-24.5c.26.27.43.63.66.91a4.43,4.43,0,0,0,.65.63,5.88,5.88,0,0,1-1.1.08Q734.31,386,734.23,385.17Zm2.53,15.5-.68.54C736.12,400.61,736.4,400.53,736.76,400.67Zm64.07-7.43a.7.7,0,0,1-.06-.45,2.25,2.25,0,0,0,1,.15C801.45,393.05,801.15,393.15,800.83,393.24Zm-.56-21.61c-.54-.56-.91.43-1.08.69a2.6,2.6,0,0,0,.07-1.08c-.07-.29-.44-.5-.58-.77a5.23,5.23,0,0,1-.36-1.1,4.56,4.56,0,0,0,1.47,1.46A.85.85,0,0,1,800.27,371.63Zm1.37-5.42a4.65,4.65,0,0,1-.64.86l0-.06a3.12,3.12,0,0,0-.49-.53,1.38,1.38,0,0,0,.19-1.06,5.33,5.33,0,0,1,1,.4A.6.6,0,0,1,801.64,366.21Zm-9.13-2.82-.1,0a10,10,0,0,0-.58-1C792.17,362.15,792.53,362.65,792.51,363.39Zm-.69-1c-.13-.19-.26-.36-.39-.53l-.22-.24c.23-.3.43-.54.4-.69C791.66,361.13,792.07,361.83,791.82,362.36ZM789.51,358c.66.11,2.47.28,1.41,1.32-.47.45-.12.81-.2,1.31a1.32,1.32,0,0,0-.32.09c-.06-.08-.13-.17-.18-.25a7.43,7.43,0,0,1-.81-2.49Zm-.87-2.88a1.92,1.92,0,0,1,.29.57c-.11-.14-.25-.29-.44-.5a15,15,0,0,0-1.06-1.43,1.53,1.53,0,0,1,.64.59A8,8,0,0,0,788.64,355.11Zm1.53-4.38a4.11,4.11,0,0,0,.87-.83,3.12,3.12,0,0,0,.31.92c-.32,0-.63,0-1,0Zm2-2.57a2.7,2.7,0,0,0-.61.23h-.17a1.55,1.55,0,0,0,.19-.36C791.75,348.07,791.94,348.12,792.16,348.16Zm-2.07-.67a1.25,1.25,0,0,1,.67.2,2.18,2.18,0,0,0-.49.42c-.51-.13-1,.16-1.53,0A8.49,8.49,0,0,1,790.09,347.49Zm-1.67,1.24a10.45,10.45,0,0,0,1.44.36,1.93,1.93,0,0,1-.6.67,2.65,2.65,0,0,0-1.77-1A1.78,1.78,0,0,1,788.42,348.73ZM773.9,338.2c-2.43.87-3.82,2-3.65,4.4a10.12,10.12,0,0,1,2.58-1.78,4.06,4.06,0,0,1,1.28-.44c-1.43.77-2.09,2.15-3.6,2.47a9.57,9.57,0,0,0-2.15.23c-1.22.45-2.78,3.29-4,3.54-.6-.69,0-1.93.29-3.15a3.42,3.42,0,0,1,.43-.42l-.36.08a2,2,0,0,0-.79-2.23,4.38,4.38,0,0,0-1.2,1.63,1.29,1.29,0,0,1,0-.65c.28-.93,1.52-.87,2.18-1.67-.69-.76-2.4-1.4-2.49-2.46,1.46-.41,3.32-1.21,4.65-.09-1-3.75-6.16-2.78-8.78-4.66.18,0,.35.09.51.11,0-1-1.49-1.05-1.28-1.76a2,2,0,0,0-.21-1.58l.26,0h.11a5.67,5.67,0,0,0,1.54,2.58,12.47,12.47,0,0,0-.41-2.54c1,.24,1.19,1,2.09,2,.09.18.17.34.25.48a2.5,2.5,0,0,1,0-.29,3,3,0,0,0,.33.28c.91.73,1.81-.44,2.76,0a2.56,2.56,0,0,0-1-2.46c-.06-.66-.09-1.56.15-1.7.63-.37,1.9,1.53,2.63,1.7,2.74.64,1.39,1.48,2,3,1.59,3.77,3.56,3.5,3.56,3.5s-.57-2.61,1.64-.5a2.32,2.32,0,0,0,.77.46c-1.47,0-3.28.8-4.51.88C770.58,337.71,773,337.05,773.9,338.2Zm-16.11-40.38a4.47,4.47,0,0,0-1.45-.14,2.49,2.49,0,0,1-.38-.46A1.31,1.31,0,0,1,757.79,297.82Zm-1.68-3.28c-.38.2-.91-.61-1.27-.69a1.58,1.58,0,0,0-1.25.35,4.6,4.6,0,0,0-.9,1.49c.13-.26,1.11-.6,1.38-.7a1.57,1.57,0,0,1,1.33-.14c-.86.57-2.06.54-2.16,2,.56-.11,1-.94,1.64-.85-.23.46-1,.85-.86,1.51.22-.07.42,0,.63-.19a.75.75,0,0,1-.2.43c-2.11.2-4.42.65-4.54,1.16a3.42,3.42,0,0,1,1.3-1.61,7.21,7.21,0,0,0-4.12.61v-.13c.54-.31.84-.73.76-.72-.24,0-.55,0-.86.08a2.82,2.82,0,0,1-.08-.65,4.81,4.81,0,0,0-.72.65,1.07,1.07,0,0,1-.45-.18,3.74,3.74,0,0,0,1.11-2.48,3.67,3.67,0,0,1-1.5,1c-.42-.75,0-1.76,0-2.57a11.19,11.19,0,0,0-.2-1.43h.08a1.51,1.51,0,0,1,1,.44,2.43,2.43,0,0,0-.8-1.06l-.26-.13c0-.07,0-.13.05-.2a.76.76,0,0,0-.17.13c-.81-.46-.41-.55-1.13-1.06a3,3,0,0,0-1-.56c.24-.24.74-.1,1,0a4.36,4.36,0,0,0,1.2.1,3.12,3.12,0,0,1,1.31.3,2.09,2.09,0,0,1,.11.3,1.27,1.27,0,0,0-.55.62c.1,0,.37-.14.67-.24a0,0,0,0,0,0,0s0,0,0,0c.38-.13.79-.22.89,0,.29.52-.35.58-1.33,2.39a4.48,4.48,0,0,0,1.22-1.5c.21-.33.88-1.45,1.48-.17a1.88,1.88,0,0,1,.08.38c-2,.49-3.5,2.48-2.87,3,.41.33.74-.11,1.82.22,0-.36-.53-.48-.53-.68.74-.16,1.79.4,2.41-.26.21-.24.41-.52.62-.76a1.43,1.43,0,0,1,1.16-.57v0h.13l-.11,0c.7-.79,1.25-3.08-.26-3.34a1.3,1.3,0,0,1,1.23-.17,5.21,5.21,0,0,0,.24.66l0,.05a4.85,4.85,0,0,0,.42,2.09,1.44,1.44,0,0,0,.24-.59c.27.34.6.64,1,.54a1.69,1.69,0,0,1,1.54.42c.21.13.57.31.19.41s-.58.09-.87.18c0,.28.55.44.77.48s1,.09,1.37.09C756.58,293.23,756.26,294.46,756.11,294.54Zm-2.19-7c.63.46,1.31.53,1.09,1.66-.07.35.37.8.39.94-.16-.09-.73-.9-.87-.74-.16-.08-.26-.34-.34-.49a3.8,3.8,0,0,0-.83-1.46A1.27,1.27,0,0,1,753.92,287.5Zm-.19,2.36a1.19,1.19,0,0,1,.35.43,1.27,1.27,0,0,1-.39,0C753.71,290.18,753.72,290,753.73,289.86Zm5.77,1.27a9.19,9.19,0,0,0-1,1.39c0-.21.07-.48.1-.78C758.92,291.52,759.23,291.34,759.5,291.13Zm-.24-1.27-.3,0c.08-.2.18-.4.27-.61A.6.6,0,0,1,759.26,289.86Zm-.75,2c0,.24,0,.48-.08.73v0a1.1,1.1,0,0,0-.48.15s0,0,.1.08h0l-.17,0A2,2,0,0,1,758.51,291.85ZM757,294.63a3.55,3.55,0,0,1,1.79-.87c0,.25-.08.48.07.72A2.36,2.36,0,0,0,757,294.63Zm2.51-2a3.31,3.31,0,0,1-.89,0,5.53,5.53,0,0,0,1.1-1.43c.21-.33.88-1.45,1.48-.17a6.8,6.8,0,0,0,.23,1C760.6,292,760.21,292.42,759.46,292.62Zm2.41-2.95a1.59,1.59,0,0,1,.57-.23c.49,0,.21.48.41.87s.64.48.82.83a1.74,1.74,0,0,1,.15.67c-.36.19-.63.36-.76.43a.92.92,0,0,1-1-.06,3.21,3.21,0,0,0-.3-1.78,2.1,2.1,0,0,1,.69.54A3.07,3.07,0,0,0,761.87,289.67Zm0,5.32c-.44-.26-.39-.66-.45-.71s-.5,0-.7,0a.43.43,0,0,1-.47-.41c0-.15,0-.64,0-.74.31.33.44.52.91.54a1.5,1.5,0,0,1,.88.24,2.85,2.85,0,0,0,.71,1.65C762.28,295.41,762.18,295.17,761.86,295Zm2.07-.16c-.24-.08-.52.05-.77,0a5.89,5.89,0,0,1-.94-.24,3.77,3.77,0,0,0,1.59-.28.77.77,0,0,1,.76.06c-.6.08,0,.73.13.94A2.56,2.56,0,0,0,763.93,294.83Zm1.12-5.76a21.72,21.72,0,0,0,.33,2.21,5.11,5.11,0,0,0-1.07.31c.41-1,.47-2.38-.66-2.6,0,0,0,0,0,0C763.88,288.79,764.79,288.44,765.05,289.07Zm-1.79-3c.4.12.64.71,1.55,1.17a2.65,2.65,0,0,0-.78.87,2.4,2.4,0,0,1-.53.57,2.11,2.11,0,0,0-.21-.31,6.65,6.65,0,0,0,.5-1.63,1.49,1.49,0,0,1-2.52.46C761.57,286.84,762.57,285.84,763.26,286.06Zm-2.21,1.43a4.78,4.78,0,0,0,1.18,1,2,2,0,0,0,0,.64,3.37,3.37,0,0,1-.54.31A2.54,2.54,0,0,0,761,289a.4.4,0,0,0-.26-.29.69.69,0,0,0-.32,0,1.1,1.1,0,0,1-.39-.3A3,3,0,0,1,761.05,287.49Zm-1.24,1.19a1.46,1.46,0,0,0,0,.22,1,1,0,0,0-.27.25c.33.16,1,.48.79,1l-.11,0a2,2,0,0,0,0-.26h0a.47.47,0,0,0-.31.18l-.19-.06a2.16,2.16,0,0,0-.45-.95A.93.93,0,0,1,759.81,288.68Zm-2.39-5.29a1.62,1.62,0,0,0,.35.77c.17.26.61.53.51.87a1.56,1.56,0,0,0-.09,1c-.29-.49-.85-.66-1.16-1.11a1.25,1.25,0,0,0,.32.77,3.37,3.37,0,0,1-1.74-1.33,2.76,2.76,0,0,0,.71,1.52c.35.3.51.76,1,.92s.88,0,1.22.3a1.06,1.06,0,0,1,.23.86,3.46,3.46,0,0,0-1.19-.65,5,5,0,0,1-.91-.34,1.5,1.5,0,0,0,.53,1c.19.13.67.23.64.53-.14,0-.29-.1-.36,0a.42.42,0,0,0,.06.32,3.15,3.15,0,0,0-.9-.49,3.26,3.26,0,0,0,.16.88,3.93,3.93,0,0,0,.7.87c.23.26.36.61.07.86s0,1.2-.09,1.63c-.16-.21-1.09-.95-1.22-1.18a.67.67,0,0,1,.17-.94c.35-.3.24-.71.08-1.09s-.11-.69-.27-.87a1.71,1.71,0,0,1-.39.71,1.8,1.8,0,0,1-.05-1.13h.43a1.47,1.47,0,0,0-.24-.4,1.22,1.22,0,0,0,.31-.57,2.34,2.34,0,0,0,0-1c-.16.21-.4.51-.69.53a1.59,1.59,0,0,0-.11-1.77c-.09.16,0,.38-.09.54a3.35,3.35,0,0,0-.81-1.21,5.59,5.59,0,0,1,0,1.53,3.55,3.55,0,0,0-.15,1,3.14,3.14,0,0,0-.74-.07,1.37,1.37,0,0,1-.29-.24,2.51,2.51,0,0,1,0,.27l-.27.05a2,2,0,0,0-.44.2,3.27,3.27,0,0,1-.75-.82,1.78,1.78,0,0,0,.36,1.13,3.21,3.21,0,0,0-.45.61,3,3,0,0,1-1.11.94,6.13,6.13,0,0,0,.86-2.31,2.29,2.29,0,0,0-1.57,2.4l0,0a2.59,2.59,0,0,1-.86-.73,3.32,3.32,0,0,1-.33-1.79,1.66,1.66,0,0,0,1.44,1c-.5-.52-.28-1.24-1.08-1.86.43.12,1.19-.31,1.81-.83a1.29,1.29,0,0,1,.91-.28c.13.29.26.58.4.85a6.1,6.1,0,0,1,0-.85,1.2,1.2,0,0,0,.2,0l-.2-.08c0-.48.11-.93.18-1.39l0,0a.64.64,0,0,0,0-.07,6.93,6.93,0,0,0,.09-1.51,4.44,4.44,0,0,0,.33-1.05c.21.26.41.53.61.8a3.67,3.67,0,0,1,.27,2.19c.54-.4.4-.72.49-1.21a3.64,3.64,0,0,0,.34.34c0-.23.28-.52.34-.75C755.72,282.24,756.56,282.9,757.42,283.39ZM743.29,268.2a3.72,3.72,0,0,0,.65-1.52c.22.32.5.63.69,1A6,6,0,0,0,743.29,268.2Zm6-7.79c0-.08,0-.11.11-.11a3.64,3.64,0,0,0,1.29.65,2.07,2.07,0,0,1-.85,0C749.54,260.72,749.31,260.53,749.32,260.41Zm-1.81-8.28-.58.09c-.19-.47-.39-.89-.55-1.2A8.06,8.06,0,0,1,747.51,252.13Zm-2.63-2.5c-.42,0-.84.06-1.27.06a2.9,2.9,0,0,1-.56-.08,6.1,6.1,0,0,1,1.09-.69A1.16,1.16,0,0,1,744.88,249.63Zm1.54-1.89.12-.07a4.56,4.56,0,0,1,.44-.25C746.85,247.68,746.68,247.92,746.42,247.74Zm-5.4-1.87c-.27.33-.47.68-.7,1a2.28,2.28,0,0,1-.84-.05C739.64,246.28,740.25,246.09,741,245.87Zm.16-5.86a4.18,4.18,0,0,0-.53.74,4.61,4.61,0,0,1-.51-.26C740.43,240.37,740.81,240.16,741.18,240Zm-3.39,5.35a3.67,3.67,0,0,1-.85-.91,4.27,4.27,0,0,1,.49-1.41C737.64,243.86,738.31,244.72,737.79,245.36Zm.26-2.17c.06-.18.14-.45.22-.69,0,.05,0,0,.07-.18s.18-.41.28-.45c.33-.12.83.55,1.1.78l.11.09A13.5,13.5,0,0,1,739,245,5.82,5.82,0,0,1,738.05,243.19Zm-7.76,3.25a1.91,1.91,0,0,1-.42-.05c-.07,0,0-.17-.06-.28A1.78,1.78,0,0,1,730.29,246.44Zm-3.56.25a11,11,0,0,0-1.43,1.66A2.25,2.25,0,0,0,724,247,6.29,6.29,0,0,0,726.73,246.69Zm-6.28-4.77.22.48a3.05,3.05,0,0,0-.75.62l0,0h-.08C719.75,243.07,720.36,242.25,720.45,241.92ZM711,257.21c.57-.31.49-1.09.62-1.35a2,2,0,0,1,.12-.21,7.88,7.88,0,0,0,.41,1.41,1.33,1.33,0,0,0,.35-.45.77.77,0,0,1,.21.37C712.34,257.28,711.7,257.18,711,257.21Zm2.1-.67a1,1,0,0,1,.14-.21,5.35,5.35,0,0,0,.75,1.08C713.48,257.23,712.9,257,713.09,256.54Zm1.42.87-.25.09-.09,0a8.43,8.43,0,0,0-.81-1.31l.12-.11a2.66,2.66,0,0,0,.71,1c.25-.24.19-.72,0-1.26a.9.9,0,0,1,.27.07,3.06,3.06,0,0,0-.36-.35c0-.05,0-.09,0-.13a4.26,4.26,0,0,0,.47.18,1.24,1.24,0,0,0-.67-.7,7.57,7.57,0,0,1-.46-1.26,9.86,9.86,0,0,1,1.33,1.18c0,.17,0,.33,0,.5,0-.11.09-.22.13-.34a.49.49,0,0,0,.12.08c0-.08,0-.17,0-.27a7.93,7.93,0,0,0,.51-1.63,4.12,4.12,0,0,0,.05-.48l.12,0a.65.65,0,0,0,.34-.24h0a1.26,1.26,0,0,1,.33,1.21,2.79,2.79,0,0,0,.24-.66c.29.09.8-.21,1.26-.72a5.15,5.15,0,0,0,.59-1.33,1.16,1.16,0,0,1,.85-.37c-.23.46-1,.85-.85,1.52.21-.08.41,0,.62-.2-.08.88-1.63.85-1.39,2.09.25-.18,1.14-1,1.54-1.12.69.74-.63,2.5.9,3.13a4,4,0,0,0-.72,1.24c.07,0,3.22-.9,3.27.76a2.48,2.48,0,0,1-.07.63,2.25,2.25,0,0,0-1.77-.31,1.79,1.79,0,0,0-1.56.85,1.66,1.66,0,0,1-.55-1.05c-.2-.67-.73-.82-1.17-1.16a2,2,0,0,0,.32,1.19c-.85-.7-1.72-.28-2.13-.46A1.58,1.58,0,0,0,714.51,257.41ZM712,270.49l.12.07a.82.82,0,0,1-.45.61l-.09-.09A2.44,2.44,0,0,1,712,270.49Zm-19,7.57a2.78,2.78,0,0,0-.78.7,5.19,5.19,0,0,1,.38-.73C692.74,278,692.87,278.06,693,278.06Zm-1.38-.15.55.07a3,3,0,0,1-.19.78C691.69,278.71,691.62,278.28,691.63,277.91Zm-.69,3.36a2.26,2.26,0,0,1,1.55-.48c.14,0,2.17-.22,2-.56-.57-.93-1.89.11-2.58.19-.09-1.72,1.81-1.24,3-2.07a1.13,1.13,0,0,0-.3-.28l.54-.06.42-.09a1.76,1.76,0,0,0-.19.39,4.43,4.43,0,0,0,1.21,0c-.26,1.65-2.27,2.27-3,3.72a7.14,7.14,0,0,0-1.66.44,2,2,0,0,1,.06-.73c-.48,0-.57.31-.69.71A.72.72,0,0,1,690.94,281.27Zm.23,2.36a1.39,1.39,0,0,1,1.57-.65c.33,0,.67.13,1,.14.49,0,.69-.33,1.14-.46a1.42,1.42,0,0,0-.2-.22,3,3,0,0,1,2.16-.08c-.11.17-.15.6-.27.77.88.73,2.78-.55,3.58.24,1.05,1.05-2,1.43-2.62,1.81.88,1.17,2.51-.23,3.45,1.39a3,3,0,0,1-2.09.48,6,6,0,0,1,.82-.38,1.88,1.88,0,0,0-1.46.24,12.91,12.91,0,0,1-2.89-1.65,3.18,3.18,0,0,0-2.3-.35c-1-.59-1.95-.77-2.19-.36A3.64,3.64,0,0,1,691.17,283.63Zm-1.43,1.29c.43-.34.91.22,1.28.6l.06.09,0,.11-.54.35.63.15c0,.06,0,.12,0,.18a.4.4,0,0,0,.16-.12,3.57,3.57,0,0,1,.57.23,4.1,4.1,0,0,0,.22.8,2.51,2.51,0,0,1-.53.39,5.8,5.8,0,0,0-1.55-1.61C689.76,285.84,689.3,285.25,689.74,284.92Zm-.72,3a1.47,1.47,0,0,0,.63.72l-.44.19a.54.54,0,0,0-.06-.59,3.89,3.89,0,0,0-.41.17,2.92,2.92,0,0,1,.12-1.71A8.31,8.31,0,0,0,689,287.89Zm-.59,4.84.35-.11a2.69,2.69,0,0,0-.17.5A1.36,1.36,0,0,1,688.43,292.73Zm1-.25a3.12,3.12,0,0,1,.61,0c-.12.37-.53.84-.82,1.67A1.47,1.47,0,0,1,689.42,292.48Zm-.71,2.95c0,.45-.37.94-.43,1.66-.43.34-.74.64-.89.74.16-1.12.81-1.27.66-1.93a3.86,3.86,0,0,0-.58,0,2.38,2.38,0,0,0,0-.38A2.9,2.9,0,0,1,688.71,295.43Zm-1.58,0a2.06,2.06,0,0,0-.34.51,6.55,6.55,0,0,0-1.84.73,1.86,1.86,0,0,1,.11-.74C685.39,295.32,686.7,295.37,687.13,295.41ZM684,297.14l-.43.15a2.61,2.61,0,0,1,.51-.89C684.2,296.46,684.12,296.75,684,297.14Zm-15.14,4.5c-.22.32-.33.71-.44.87-.37-.14-.35-.58-.28-.94Zm-2.3,2c.26-.25.78-.32,1.09-.49a2.65,2.65,0,0,0,1.52,2.12c.39-.79-.43-1.29-.57-1.59-.58-1.28.71-1.06,1.1-1l.62.1c-.69,0-1.43.07-1.73.47,3.25,1.63.68,2.3-1.32,2.78a1.63,1.63,0,0,1-.22-.34c-.15-.37.06-.79-.1-1.17S666.23,304,666.57,303.66Zm-2,1.74c-.32-.62.61-1.11.87-1.15-.5.84.16,1.58,1,2a3.28,3.28,0,0,0-.8.29C665.22,306.05,664.7,305.61,664.59,305.4Zm22,7.58a2.68,2.68,0,0,0,.07-.27,12.83,12.83,0,0,0,.14-2.91c.15.69.23,1.49.46,2.22A3.69,3.69,0,0,0,686.56,313Zm1.41-1.64c0-.11,0-.22,0-.33.39-.13.75-.42,1.08-.5l.1.05A10.29,10.29,0,0,0,688,311.34Zm4.37,1.84.06-.16a3.49,3.49,0,0,1,1.43.46l-.05,0c-.19.22-.36.44-.53.67C692.82,313.9,692.38,313.62,692.34,313.18Zm3.81-1.63a3.57,3.57,0,0,0-2.57.9c.55,0,1.08-.43,1.65-.2a6.25,6.25,0,0,0-1.2,1,4.35,4.35,0,0,0-1.37-.83c.37-.84.82-1.56,1.16-.67a2.62,2.62,0,0,0,.53-1.44,1,1,0,0,0,.13.16,2.22,2.22,0,0,0,.17-1c.2-.1.39-.21.59-.33.21.57.37,1.14.52,1.71a3.79,3.79,0,0,0,.09-2.09l.07,0,.16.18a1.67,1.67,0,0,1,0-.31l.24-.14c.24.47.79,1.26.93,1.53-.36.53-.65,1.08-.2,1.57a.46.46,0,0,1,.73.2A4.39,4.39,0,0,1,696.15,311.55Zm3.87-.68a1,1,0,0,1,.46-.12l0,.37A4.47,4.47,0,0,1,700,310.87Zm3.11,2a1.5,1.5,0,0,1,.35-.36,5.17,5.17,0,0,0-.18.51,7.3,7.3,0,0,0,.56-.63.58.58,0,0,1,.34.1c.13.17,0,.28.29.42-.4.21-2,0-1.34.8a1.86,1.86,0,0,1-.83.22A6.33,6.33,0,0,0,703.13,312.84Zm-2.22,2.83a1.78,1.78,0,0,1-.64-.2c.65-.16,1.29-.22,1.94-.33a1.69,1.69,0,0,1,.27.13A2.39,2.39,0,0,1,700.91,315.67Zm9.48,3.25a2.74,2.74,0,0,1-.58,0c0-.22.07-.43.1-.65a1.05,1.05,0,0,0,.86-.7C710.89,317.76,711.08,318.79,710.39,318.92Zm.46-2.08a5.75,5.75,0,0,0,.58.49c0,.19,0,.41,0,.62A3.26,3.26,0,0,1,710.85,316.84Zm2.44-1.18h0a6.65,6.65,0,0,1,.63.51c0,.17-.05.34-.07.51C713.64,316.22,713.4,315.86,713.29,315.66Zm4.09,3.65c-.1-.5-.28-1-.39-1.48.65-.06.82.66,1.35.88.51-.76-.85-1.94-1.43-2.26a2.38,2.38,0,0,1-.9-.57c-.25-.33-.2-.73-.46-1s-1-.3-1.11-.93a.83.83,0,0,1,.56,0,3,3,0,0,0-1.33-1l-.21-.19c.17-.07.46,0,.91.37a2,2,0,0,0,0-.25c.48.44.45,1.11,1.3,1.83.36.3,1.24.65,1.4,1.11a3.65,3.65,0,0,0-.41-1.77c-.16-.29-.47-.4-.68-.63a4.5,4.5,0,0,1-.65-1.05c.2-.06.29-.24.5-.16s.19.8.83.86c.21,0,.37-.12.56,0s.18.33.25.49a2.44,2.44,0,0,0,1.56.88,2.43,2.43,0,0,1,.92.56,2.2,2.2,0,0,0-.21,1.41c-3.2.06-1,.95.18,2.32C719.42,318.85,718.39,319,717.38,319.31Zm-11.09,16.11a12.17,12.17,0,0,1-.9,2.38.93.93,0,0,1-.71.39c-1,0-.25-1-.93-1.28a.25.25,0,0,0-.2,0A4.13,4.13,0,0,1,706.29,335.42Zm-9-10.93a7.32,7.32,0,0,1,.78,1.21,2.57,2.57,0,0,1-1.27-.5C697,325,697.17,324.72,697.32,324.49ZM686.69,331a1.47,1.47,0,0,0-.66,0c.18-.1.83-.3.56-.64a.41.41,0,0,1,.42.31,3.72,3.72,0,0,0,.2.4,2.26,2.26,0,0,1-.26.16C686.87,331.17,686.8,331.06,686.69,331Zm.66,6.05-.11-.17c.53-.4.42-1.13.44-1.77l.36-.23a.53.53,0,0,0,.34.28,4.24,4.24,0,0,1,0-.44l.32-.17c.49,1-.41,2.56,0,3.47C688.13,337.57,687.54,337.39,687.35,337.08Zm1.54,1.32a3.08,3.08,0,0,0,.38-.16,2.48,2.48,0,0,0-.13.72A2.06,2.06,0,0,0,688.89,338.4Zm.23,6.74c-.44.19-.8.36-1.1.52s-.66,0-1,0A20.09,20.09,0,0,1,689.12,345.14Zm-3.61,2.79c.15-1,.91-.65,1.75-1.17A14.82,14.82,0,0,1,685.51,347.93Zm2.58.53s0,0,0-.08a1.11,1.11,0,0,1,.14-.75l0,0C688.41,347.74,688.29,348.11,688.09,348.46Zm3.31.2a1.45,1.45,0,0,0-.17-.62,8.55,8.55,0,0,1-.55-1c0-.08.09-.1.26,0a.84.84,0,0,0,0,.17V347c.35.13.68.32,1,.44-.18.38-.36.76.08,1.19.36-.51.3.43.31.61v.08a.77.77,0,0,0-.18-.1A2.06,2.06,0,0,1,691.4,348.66Zm.42-6.12c.26,0,1.49-.25,1.74.39a1.78,1.78,0,0,0-.31-.81,3.5,3.5,0,0,0,.94.53,2.3,2.3,0,0,1-.65,1.1l-.22.07C693,343.83,692.52,343.48,691.82,342.54Zm10.31,13.6a3.25,3.25,0,0,0-.21-1,4.16,4.16,0,0,1,1.08.47A1.08,1.08,0,0,1,702.13,356.14Zm-.4-1.59a1.62,1.62,0,0,1,0-1,5.91,5.91,0,0,1,2.52,1.44A17.66,17.66,0,0,0,701.73,354.55Zm4.07.52a4.06,4.06,0,0,1-1.28-.06c0-1.06-1.48-2.28-2.37-2.65-.59-.25-1-.09-1.27-.77-.23-.5.11-1.06-.06-1.55-.29-.81-1.3-1-2.07-1a1.44,1.44,0,0,1-1.48-1.11,2,2,0,0,0,.69.45c.28.06.6-.09.87.07a.5.5,0,0,0-.05-.21,4.64,4.64,0,0,0,1.43-.62,1.93,1.93,0,0,0,.09.38c1-.68,1.21-1.62,1.78-2.55a.77.77,0,0,1,.3.91c-.18.45-1.65,1.79-1.77,2.75a5,5,0,0,0,2-1.37A3.38,3.38,0,0,1,702,349a4.76,4.76,0,0,0,1.7-.67l.09.44a4.41,4.41,0,0,1,1-1.08,2.91,2.91,0,0,1,.31,1.31,3.73,3.73,0,0,0-.33,1.38l.52-.52a.71.71,0,0,0,.21.28,3.62,3.62,0,0,0,.75-1.33,8.47,8.47,0,0,0,.72-.94,2.16,2.16,0,0,0,.22-1.71.71.71,0,0,1,.1-.14,3.79,3.79,0,0,0,1,2.33,4.84,4.84,0,0,0,.86-2.15c.82.33,1.1-1,1.41-2.13A.7.7,0,0,0,711,344a.28.28,0,0,0,.1-.09c0,.31,0,.62,0,.93a2.59,2.59,0,0,0,.63-.95,1.56,1.56,0,0,0,.16.2,2.1,2.1,0,0,1-.13-.26c.24-.53.47-1.16.73-1.69a1.31,1.31,0,0,0,.39,0,5.64,5.64,0,0,0,1.12-.57c-.05.86-1.06,2.6-.57,3.95.67-.59.69-1.83,1.43-2.46.23,1.63-.26,2.91.58,4.41a14.62,14.62,0,0,1,1.08-3.21c.22,1.28.9,1.06,1-.05.1-.9-.64-1.62-.64-2.48a4.09,4.09,0,0,1,1.07.6,1.29,1.29,0,0,0-.25.74,5.89,5.89,0,0,1,2.45-1.16c.28.86-.88,1.77-.43,2.79a7.29,7.29,0,0,0,2.16,2c-.25-.57-1.47-3.4-.76-3.75.34.68.87.93,1.32,1.44a6.57,6.57,0,0,0-.24-2.19l.18-.35c.21.19.41.41.6.61A5.85,5.85,0,0,0,723,341a5.41,5.41,0,0,1,.64-.82,9.45,9.45,0,0,0,.51,1.43c.1,2.48-2,5.36-.52,7.75.68-.51.75-1.45,1.64-1.64.24.75.4,2,1.45,1.51a9.73,9.73,0,0,0,.76,1c.07.79,1.12,1.55.7,2.26a3.7,3.7,0,0,1-1.41-1.45c-.21,1.15,1.69,2.36,2.08,3.39a4.72,4.72,0,0,1,.27,1.08c-1.1.31-3.27,1-3.64,3.38-1.22-.7-2.48-2.53-3.36-3.19a8.06,8.06,0,0,0-3.15-1.57c-.38-.1-2.87-.19-3-.43.34.6,1.32,1,1.7,1.63s.12,1.14.43,1.84c-1.45.81-2.74.12-4.29.35.19.28.44,1,.62,1.29-1.66.3-3.19-.64-4.61.64l.1,0a2.23,2.23,0,0,0-.79.26,8.19,8.19,0,0,0-.78-4l.13-.12c.36.52.54,1.43,1.28,1.69.4-1.1-.32-1.83-.7-2.41a1.38,1.38,0,0,0,.29-.88c.56.91,1.34.76,1.84,1.36a1.79,1.79,0,0,0-.93-1.65,3.75,3.75,0,0,1,1.85.56c.51.39.68,1.26,1.12,1.67-.08-.59-.2-2.7-1.62-3.13,1.6,0,1.86-1,2.84-.88-.94-.34-1.17-.71-1.82-.73s-1.2.37-1.86.35a3.29,3.29,0,0,0,1-1.87,2.85,2.85,0,0,0-1.3.85c-.43.51-.36,1.3-.84,1.79s-1.51.45-2,1.08a2.93,2.93,0,0,0-.4,1.26A6.72,6.72,0,0,1,705.8,355.07ZM710,361.6a7.73,7.73,0,0,0-1.07,2.72c-.81-.26-1.69-.66-2.47-.91C707.58,362.78,708.79,361.33,710,361.6Zm-11.73,7.18a13.77,13.77,0,0,1-1.37.82c-.58-.31-1.12-.64-1.28-1.28A2.77,2.77,0,0,1,698.25,368.78Zm-12.7-4.14c0,.19-.07.43-.13.67a1.56,1.56,0,0,0-.41.11,8.87,8.87,0,0,0-.39-1.26A6.78,6.78,0,0,1,685.55,364.64Zm-19.69,11.69a3.49,3.49,0,0,1,1.39-.32,2.44,2.44,0,0,0-.37,1.42,3.94,3.94,0,0,1-1.74.2A4.18,4.18,0,0,1,665.86,376.33Zm27.94,20.22c.41-.38.85-.32,1.26-.62,1.23-.89,2.16-2.49,3.42-3.16a3.23,3.23,0,0,1-.2,1.08l-.11,0a.37.37,0,0,0,.06.1,6.7,6.7,0,0,0-.87,2.73c.3-.14,1-.13,1.28-.28a1,1,0,0,0,.7.94c.09.06.16.12.13.2a11.06,11.06,0,0,1-.74,2.16,6,6,0,0,0-.39.49.66.66,0,0,1-.34.18,1.17,1.17,0,0,1-.67-.08c-.17-.45-.26-1,0-1.23s1.29-.2,1.75-.49a8.62,8.62,0,0,0-2.38.12c-.43.09-.87.24-1.31.34a9.81,9.81,0,0,0-.86-.62,11,11,0,0,0-1.67-.75A6.44,6.44,0,0,1,693.8,396.55Zm-9.38,15.07c.49,0,1.29.7,2.15.08-.4-.58-1.33-.35-1.69-.71a11.87,11.87,0,0,0,1.51.12,2.61,2.61,0,0,1,.33,1.12c-1-.18-1.85-.29-2.59-.35A.28.28,0,0,1,684.42,411.62Zm-9.5,0c.54-1,1.36-1.45,2.33-.62-.74.35-1.31.56-1.44,1.48a5.3,5.3,0,0,1,2,.53,1.51,1.51,0,0,1-.48.41,16.92,16.92,0,0,0-3.15.05A8.66,8.66,0,0,1,674.92,411.65Zm-1.9,4.78a3.17,3.17,0,0,1,.34-.66l.42.09a1.4,1.4,0,0,0-.09.29A2.87,2.87,0,0,1,673,416.43Zm29.33,12.4a6.91,6.91,0,0,1,2.94-.17c-1.13-2.07-4.29-1.32-5.42-3.17-1.49-2.45,2.21.81,6.77-.16-.54-.63-1.48-.95-2-1.63.73-.56,1.89-.3,2.83-.36-.7-.76-.18-1.06.69-1.17.4.8.1,1.15-.23,1.86-.65,1.39-2.28,2-2.08,3.82.57-.37,1.81-1.1,2.31-.33s-.56,1.26-.64,2c1,.15,1.94-.29,2.94-.12-.07.23-.44.84-.81,1.54C708,429.58,704.23,429.07,702.35,428.83Zm7.07,2.5a8.34,8.34,0,0,0-.55,1.35C708.19,432.26,708.25,431.75,709.42,431.33Zm25.09-29.22c0-.3,0-.59,0-.86a5.86,5.86,0,0,0,.8.44A4.18,4.18,0,0,1,734.51,402.11Zm48,8.26c.1-1,1.75-1.43,2.62-1.85-.65-1.57-4.89.23-6.32,0-.06-1.38,1.85-2.09,1.49-3.6a6.23,6.23,0,0,0-2.12-.23,12.57,12.57,0,0,1,2.33-3.3c-.87-1.37-3.57.3-4.67.71a8.75,8.75,0,0,1-2.25.6c-.46-.61-1.08-1.07-.72-1.64a3.27,3.27,0,0,0,0-3.15c.58.16,2.17,1.31,2.72,1.52.58-2.42-2.52-6.89-.16-6.93a5,5,0,0,0,2.41,4.36c1.1.67,1.51.27,1.47,1.37a5.42,5.42,0,0,0,1.91,3.83s.4-3.21,1-3.37,1.12.71,1.67,1.62a3.32,3.32,0,0,0,0,.53,1.91,1.91,0,0,1,.06-.37,5,5,0,0,0,1.27,1.63,5.74,5.74,0,0,1,1.71,1.25c.05.16.1.3.14.44a1.62,1.62,0,0,1,0-.2c.59,1-.43,1.84-.21,3.49a10,10,0,0,0,1.74,4.94A15,15,0,0,0,782.51,410.37Zm25.54-7.12a6.06,6.06,0,0,1-.26-1,5.86,5.86,0,0,1,2.13,1A4.2,4.2,0,0,0,808.05,403.25Z" transform="translate(0 0)"/><path class="cls-2" d="M765,534.82a10.14,10.14,0,0,1-1.84-.88l.18-.15c1-.66,1.56-.34,1.56-.34-.5-1.28-2.4,0-2.47-.88a3.16,3.16,0,0,1,.68-1.8c.14-.2-1.51,1.17-1.73,1.24s-.38,0-.43-.12,0-.72.77-.82c-.42-.33-1.72.75-2.2.62.2-1,2-1.17,2.37-1.34a2.23,2.23,0,0,0-1.3-.12c-.34,0-.71.07-1,.11,0-.18.17-.37.24-.54a1.58,1.58,0,0,0,.21-.92,3.4,3.4,0,0,1-1.17,1.33c.1-.26.24-.78,0-1-.14.5-.27.81-.92.58-.11,0-.91-.39-1-.27.12-.23.44-.33.73-.42a11.53,11.53,0,0,0-2.27,0c.22-.53,1.26-.64,1.83-.79a8.8,8.8,0,0,1-1-.08,8.45,8.45,0,0,0-1,.13,5.85,5.85,0,0,1-2.31.3c.07-.36.82-.59,1.13-.77a3.37,3.37,0,0,0-1.74.57c.33-.34.5-.78,1-1a5.86,5.86,0,0,1,1.41-.38,2.8,2.8,0,0,0-2.57.62,2.08,2.08,0,0,1-1,.62c-.5.07-.43-.1-.13-.36a4.28,4.28,0,0,0-.8.21c-.08,0-.76.11-.76.11.15-.2.52-.21.67-.37,0,0-.67-.07-.74-.07a5.16,5.16,0,0,0-.79.09c-.49.09-.69.36-1.12.49,0-.55,1-2.17.41-2.48,0,1.07-1.49,2-1.49,2.06a2.92,2.92,0,0,1,.92-1.73,3.09,3.09,0,0,0-1.7,1.2A6.43,6.43,0,0,1,746,525a8.09,8.09,0,0,0-1.39,3.23h0a6.36,6.36,0,0,1,.18-2.81,2,2,0,0,0-.65,1.69,4.47,4.47,0,0,1-.43-2.68c-.72.71-.27,1.73-.17,2.08a1.56,1.56,0,0,1-.06,1.4l-.07,0a1.34,1.34,0,0,0-.18-.95c-.24.16-.41.69-.72.77l-.11,0a1.3,1.3,0,0,1,.55-1.31,1.62,1.62,0,0,0-1.2,1.21l-.62-.07a10.26,10.26,0,0,0-.09-2.29,3.83,3.83,0,0,0-.25,2.25h-.19c-.26-.44-.57-1.1-.91-1.13a4.13,4.13,0,0,1,.32,1.09,5.49,5.49,0,0,0-.58,0c0-.09-.1-.15-.16-.16a.44.44,0,0,1,.05.15h-.64a9.35,9.35,0,0,1,.22-1.29c-.17,0-.46.66-.72,1.28h-.66a3.74,3.74,0,0,1,.16-.5,1.08,1.08,0,0,0-.6.52c-.68,0-1.44.08-2.24.15a9.09,9.09,0,0,0-1.27-.78c-.44-.34-.06.08.49.84-1,.09-1.92.18-2.79.28a3.72,3.72,0,0,0-.2-1.51c-.12-.34-.32.81-.63,1.6l-1,.11c-.61-1.22-.72-3.49-.93-3.88a6.2,6.2,0,0,0-1.59-1.89c.62,1.18,1.18,2,.78,3a3,3,0,0,0-2-1.23c.15,0,.67.89.77,1a2.87,2.87,0,0,1,.52,1.29c0-.07-.9-.48-1-.61a4.59,4.59,0,0,1-1-2.15c-.31.08-.21,1.16-.11,1.41.25.67.85,1.22.89,2-.52-.16-.79-.53-1.37-.63a4.87,4.87,0,0,0-.93-.08c-.09,0-.84.14-.86.12.19.22.63.22.83.49l-.9-.11a3.77,3.77,0,0,0-1-.26c.39.34.49.57-.11.5s-.88-.47-1.29-.8a3,3,0,0,0-3.07-.74,7.05,7.05,0,0,1,1.69.46c.57.31.83.9,1.25,1.35a3.77,3.77,0,0,0-2.1-.7c.39.24,1.29.51,1.41,1-.81.29-1.94-.15-2.74-.3a6.76,6.76,0,0,0-1.19-.12c-.3,0-.88.21-1.13.14.68.19,1.91.29,2.23,1a12,12,0,0,0-2.65.16,1.41,1.41,0,0,1,.9.54c-.09-.17-1,.36-1.11.42-.73.33-.92-.08-1.15-.76-.31.27-.08,1,.07,1.34a4.8,4.8,0,0,1-1.53-1.78c.2.36.16.87.35,1.26.11.23.36.48.35.73-.4,0-.84,0-1.25-.1a2.23,2.23,0,0,0-1.5.21c.41.22,2.1-.16,2.24.6-.54.21-1.5-.08-2,.39.3,0,1.12-.15,1.23.25,0,0-.23.1-.47.26a18.51,18.51,0,0,0-2.75,1.69,8.66,8.66,0,0,1-4.66,2.2c-1,.07-4.67,2.38-3.36,2.21,1-.13,68.09-1.15,68-1.18C766.72,536.53,766.73,535.46,765,534.82Z" transform="translate(0 0)"/></g></svg>